<svg width="26" height="27" viewBox="0 0 26 27" fill="none" xmlns="http://www.w3.org/2000/svg">
<g filter="url(#filter0_d_395_22224)">
<path d="M12.1156 1.60938C7.9833 1.60938 4.61719 4.97548 4.61719 9.10776C4.61719 13.24 7.9833 16.6127 12.1156 16.6127C13.8806 16.6127 15.5038 15.9941 16.7868 14.9671L19.9102 18.0889C20.0678 18.24 20.2783 18.3233 20.4966 18.3211C20.715 18.3189 20.9237 18.2312 21.0782 18.0769C21.2327 17.9227 21.3207 17.714 21.3232 17.4957C21.3257 17.2774 21.2427 17.0667 21.0918 16.9089L17.9684 13.7856C18.9963 12.5006 19.6156 10.8748 19.6156 9.10776C19.6156 4.97548 16.2478 1.60938 12.1156 1.60938V1.60938ZM12.1156 3.27607C15.3471 3.27607 17.9473 5.87623 17.9473 9.10776C17.9473 12.3393 15.3471 14.946 12.1156 14.946C8.88403 14.946 6.28385 12.3393 6.28385 9.10776C6.28385 5.87623 8.88403 3.27607 12.1156 3.27607Z" fill="#5D6C7B"/>
</g>
<defs>
<filter id="filter0_d_395_22224" x="-1" y="0" width="28" height="28" filterUnits="userSpaceOnUse" color-interpolation-filters="sRGB">
<feFlood flood-opacity="0" result="BackgroundImageFix"/>
<feColorMatrix in="SourceAlpha" type="matrix" values="0 0 0 0 0 0 0 0 0 0 0 0 0 0 0 0 0 0 127 0" result="hardAlpha"/>
<feOffset dy="4"/>
<feGaussianBlur stdDeviation="2"/>
<feComposite in2="hardAlpha" operator="out"/>
<feColorMatrix type="matrix" values="0 0 0 0 0 0 0 0 0 0 0 0 0 0 0 0 0 0 0.25 0"/>
<feBlend mode="normal" in2="BackgroundImageFix" result="effect1_dropShadow_395_22224"/>
<feBlend mode="normal" in="SourceGraphic" in2="effect1_dropShadow_395_22224" result="shape"/>
</filter>
</defs>
</svg>
