<?xml version="1.0" encoding="utf-8"?><svg viewBox="0 0 51 39" xmlns="http://www.w3.org/2000/svg" xmlns:xlink="http://www.w3.org/1999/xlink"><style>:root>svg{display:none}:root>svg:target{display:block}</style><svg viewBox="0 0 51 39" id="logo" xmlns="http://www.w3.org/2000/svg"><path fill-rule="evenodd" fill="#A3BBC8" d="M49.728 38.647c-.405.33-.903.213-.908.212L.779 29.061c-.014-.003-.382-.075-.622-.387-.239-.311-.157-.666-.067-.848.088-.18 6.411-12.931 6.582-13.256.171-.325.375-.387.507-.452L42.373.068s.57-.188.965.051a.961.961 0 0 1 .449.645l6.251 37.079s.094.475-.31.804Zm-6.251-2.699L22.949 24.537l-17.523 3.65 38.051 7.761Zm2.266-.838-9.711-13.304-10.339 2.159 20.05 11.145ZM2.736 26.924l17.833-3.714-12.522-6.983-5.311 10.697Zm6.973-11.869 13.601 7.584 12.372-2.583L41.24 2.468 9.709 15.055Zm32.778-9.922-4.903 15.52 9.779 13.397-4.876-28.917Z"/></svg></svg>