<?xml version="1.0" encoding="utf-8"?><!DOCTYPE svg  PUBLIC '-//W3C//DTD SVG 1.1//EN'  'http://www.w3.org/Graphics/SVG/1.1/DTD/svg11.dtd'><svg viewBox="0 0 152 50" xmlns="http://www.w3.org/2000/svg" xmlns:xlink="http://www.w3.org/1999/xlink"><style>:root>svg{display:none}:root>svg:target{display:block}</style><svg fill="none" viewBox="0 0 16 16" id="Search" xmlns="http://www.w3.org/2000/svg"><g clip-path="url(#aaa)"><path d="m15.952 14.85-5.194-5.194A5.946 5.946 0 0 0 12 6a5.964 5.964 0 0 0-1.758-4.242A5.956 5.956 0 0 0 6 0C4.398 0 2.89.626 1.758 1.758A5.952 5.952 0 0 0 0 6c0 1.602.626 3.11 1.758 4.242A5.952 5.952 0 0 0 6 12a5.95 5.95 0 0 0 3.654-1.24l5.194 5.192a.162.162 0 0 0 .179.036.162.162 0 0 0 .053-.036l.872-.87a.162.162 0 0 0 .036-.179.162.162 0 0 0-.036-.053ZM9.168 9.168A4.456 4.456 0 0 1 6 10.48a4.456 4.456 0 0 1-3.168-1.312A4.456 4.456 0 0 1 1.52 6c0-1.196.466-2.322 1.312-3.168A4.456 4.456 0 0 1 6 1.52c1.196 0 2.322.464 3.168 1.312A4.456 4.456 0 0 1 10.48 6a4.452 4.452 0 0 1-1.312 3.168Z" fill="#fff"/></g><defs><clipPath id="aaa"><path fill="#fff" d="M0 0h16v16H0z"/></clipPath></defs></svg><svg fill="none" viewBox="0 0 18 18" id="accumulator-icon" xmlns="http://www.w3.org/2000/svg"><path d="M16.5 3.75V3a.75.75 0 0 0-.75-.75H13.5a.75.75 0 0 0-.75.75v.75h-.22l-.31-.31A1.51 1.51 0 0 0 11.16 3H6.84c-.394 0-.78.16-1.06.44l-.31.31h-.22V3a.75.75 0 0 0-.75-.75H2.25A.75.75 0 0 0 1.5 3v.75c-.827 0-1.5.673-1.5 1.5v9c0 .827.673 1.5 1.5 1.5h15c.827 0 1.5-.673 1.5-1.5v-9c0-.827-.673-1.5-1.5-1.5ZM4.125 7.5h-1.5a.375.375 0 1 1 0-.75h1.5a.375.375 0 1 1 0 .75Zm11.25 0H15v.375a.375.375 0 1 1-.75 0V7.5h-.375a.375.375 0 1 1 0-.75h.375v-.375a.375.375 0 1 1 .75 0v.375h.375a.375.375 0 1 1 0 .75Z" fill="#5D6C7B"/></svg><svg fill="none" viewBox="0 0 136 45" id="app-store" xmlns="http://www.w3.org/2000/svg"><g clip-path="url(#aca)"><path d="M124.359 0H11.184c-.413 0-.82 0-1.232.002-.344.003-.686.01-1.034.015-.755.009-1.509.075-2.254.198a7.498 7.498 0 0 0-2.139.706 7.242 7.242 0 0 0-3.85 5.29 14.617 14.617 0 0 0-.2 2.253C.463 8.81.462 9.155.456 9.5v26.004c.006.349.007.687.017 1.037.009.755.076 1.508.202 2.252.123.746.36 1.468.703 2.142.34.673.788 1.286 1.325 1.816a7.06 7.06 0 0 0 1.821 1.326 7.54 7.54 0 0 0 2.139.71c.745.122 1.499.189 2.254.199.348.008.69.012 1.034.012.411.002.819.002 1.232.002h113.175c.404 0 .815 0 1.219-.002.343 0 .694-.005 1.037-.012a14.96 14.96 0 0 0 2.25-.199 7.66 7.66 0 0 0 2.147-.71 7.059 7.059 0 0 0 1.819-1.326 7.187 7.187 0 0 0 1.33-1.816 7.453 7.453 0 0 0 .696-2.142 15.18 15.18 0 0 0 .209-2.252c.004-.35.004-.688.004-1.037.009-.41.009-.816.009-1.231V10.728c0-.412 0-.82-.009-1.228 0-.345 0-.691-.004-1.036a15.183 15.183 0 0 0-.209-2.252 7.448 7.448 0 0 0-.696-2.141 7.278 7.278 0 0 0-3.149-3.15 7.617 7.617 0 0 0-2.147-.706 14.666 14.666 0 0 0-2.25-.198c-.343-.006-.694-.013-1.037-.015C125.174 0 124.763 0 124.359 0Z" fill="#fff"/><path d="M28.577 22.376a5.79 5.79 0 0 1 2.757-4.858 5.925 5.925 0 0 0-4.67-2.524c-1.964-.206-3.869 1.176-4.87 1.176-1.02 0-2.561-1.155-4.221-1.121a6.218 6.218 0 0 0-5.233 3.191c-2.262 3.917-.575 9.674 1.592 12.84 1.085 1.551 2.352 3.283 4.01 3.222 1.623-.068 2.23-1.035 4.188-1.035 1.94 0 2.509 1.035 4.2.996 1.742-.029 2.84-1.558 3.886-3.123a12.82 12.82 0 0 0 1.776-3.618 5.594 5.594 0 0 1-3.415-5.146ZM25.38 12.912a5.7 5.7 0 0 0 1.304-4.084 5.8 5.8 0 0 0-3.753 1.942 5.424 5.424 0 0 0-1.338 3.932 4.795 4.795 0 0 0 3.787-1.79ZM48.047 30.533h-5.325l-1.279 3.776h-2.255l5.043-13.97h2.344l5.043 13.97h-2.293l-1.278-3.776Zm-4.774-1.743h4.221l-2.08-6.128h-.059l-2.082 6.128ZM62.512 29.216c0 3.166-1.694 5.2-4.25 5.2a3.452 3.452 0 0 1-3.205-1.783h-.048v5.045h-2.091V24.123h2.024v1.694h.038a3.613 3.613 0 0 1 3.243-1.8c2.585 0 4.29 2.043 4.29 5.2Zm-2.149 0c0-2.062-1.065-3.418-2.691-3.418-1.598 0-2.672 1.385-2.672 3.418 0 2.053 1.074 3.427 2.672 3.427 1.626 0 2.691-1.346 2.691-3.427ZM73.724 29.216c0 3.166-1.695 5.2-4.251 5.2a3.453 3.453 0 0 1-3.205-1.783h-.048v5.045h-2.091V24.123h2.024v1.694h.038a3.614 3.614 0 0 1 3.243-1.8c2.585 0 4.29 2.043 4.29 5.2Zm-2.15 0c0-2.062-1.065-3.418-2.691-3.418-1.598 0-2.672 1.385-2.672 3.418 0 2.053 1.074 3.427 2.672 3.427 1.626 0 2.691-1.346 2.691-3.427ZM81.132 30.416c.155 1.386 1.501 2.295 3.34 2.295 1.762 0 3.03-.91 3.03-2.159 0-1.084-.764-1.733-2.575-2.178l-1.81-.436c-2.566-.62-3.757-1.82-3.757-3.766 0-2.41 2.1-4.067 5.083-4.067 2.953 0 4.976 1.656 5.044 4.067h-2.11c-.126-1.395-1.279-2.236-2.963-2.236-1.684 0-2.837.851-2.837 2.09 0 .988.736 1.57 2.537 2.014l1.54.378c2.866.678 4.055 1.83 4.055 3.873 0 2.613-2.08 4.25-5.392 4.25-3.098 0-5.19-1.598-5.325-4.125h2.14ZM94.222 21.713v2.41h1.937v1.656h-1.937v5.615c0 .872.388 1.279 1.24 1.279.23-.004.459-.02.687-.049v1.646a5.732 5.732 0 0 1-1.161.097c-2.062 0-2.866-.775-2.866-2.75v-5.838H90.64v-1.656h1.48v-2.41h2.101ZM97.281 29.216c0-3.204 1.888-5.218 4.831-5.218 2.953 0 4.832 2.014 4.832 5.218 0 3.214-1.869 5.22-4.832 5.22-2.962 0-4.83-2.006-4.83-5.22Zm7.532 0c0-2.198-1.007-3.495-2.701-3.495-1.694 0-2.702 1.307-2.702 3.495 0 2.208 1.008 3.495 2.702 3.495s2.701-1.287 2.701-3.494ZM108.664 24.123h1.994v1.734h.048a2.432 2.432 0 0 1 2.45-1.84c.241-.001.482.025.717.077v1.956a2.923 2.923 0 0 0-.94-.126 2.105 2.105 0 0 0-2.178 2.343v6.041h-2.091V24.123ZM123.512 31.317c-.281 1.85-2.082 3.118-4.386 3.118-2.963 0-4.802-1.985-4.802-5.17 0-3.195 1.849-5.267 4.714-5.267 2.818 0 4.591 1.936 4.591 5.024v.716h-7.194v.127a2.639 2.639 0 0 0 .719 2.06 2.652 2.652 0 0 0 2.021.825 2.302 2.302 0 0 0 2.352-1.433h1.985Zm-7.067-3.04h5.092a2.45 2.45 0 0 0-2.499-2.585 2.58 2.58 0 0 0-2.593 2.585ZM41.786 12.66h.898a1.13 1.13 0 0 0 1.265-1.07c0-.62-.466-1.019-1.255-1.019a1.197 1.197 0 0 0-1.355 1.051h-.986a2.104 2.104 0 0 1 2.372-1.963c1.322 0 2.253.74 2.253 1.805A1.559 1.559 0 0 1 43.758 13v.08a1.564 1.564 0 0 1 1.493 1.623 2.242 2.242 0 0 1-2.507 1.996 2.23 2.23 0 0 1-2.521-1.987h1c.06.642.65 1.057 1.521 1.057.87 0 1.438-.466 1.438-1.122 0-.665-.535-1.075-1.47-1.075h-.926v-.91ZM46.387 15.102c0-.912.68-1.438 1.884-1.512l1.372-.08v-.437c0-.535-.353-.837-1.037-.837-.558 0-.944.205-1.056.563h-.968c.102-.87.922-1.428 2.071-1.428 1.27 0 1.986.632 1.986 1.702v3.462h-.963v-.712h-.08a1.704 1.704 0 0 1-1.52.795 1.53 1.53 0 0 1-1.69-1.516Zm3.256-.433v-.423l-1.237.079c-.698.046-1.014.284-1.014.73 0 .456.395.722.94.722a1.196 1.196 0 0 0 1.311-1.108ZM53.293 12.31v4.225h-1v-5.066h3.336v.841h-2.336ZM61.688 14c0 1.61-.814 2.62-2.093 2.62a1.652 1.652 0 0 1-1.56-.852h-.078v2.452h-1v-6.75h.962v.837h.075a1.76 1.76 0 0 1 1.591-.921c1.289 0 2.103 1.004 2.103 2.615Zm-1.029 0c0-1.07-.506-1.716-1.353-1.716-.842 0-1.368.66-1.368 1.72 0 1.057.526 1.718 1.363 1.718.852 0 1.358-.647 1.358-1.721ZM63.02 18.349v-.86c.108.013.217.02.327.018a.866.866 0 0 0 .916-.707l.075-.247-1.834-5.084h1.089l1.27 4.024h.079l1.265-4.024h1.06l-1.888 5.275c-.433 1.233-.912 1.628-1.945 1.628-.083 0-.32-.01-.414-.023ZM68.047 15.097h.995c.098.447.517.68 1.102.68.666 0 1.075-.294 1.075-.75 0-.488-.367-.72-1.075-.72h-.758v-.778h.745c.604 0 .912-.232.912-.655 0-.372-.298-.656-.912-.656-.56 0-.968.237-1.033.637h-.963a1.775 1.775 0 0 1 1.996-1.484c1.204 0 1.893.544 1.893 1.4a1.04 1.04 0 0 1-.8 1.037v.08a1.137 1.137 0 0 1 .991 1.14c0 .962-.82 1.6-2.07 1.6-1.107 0-2.006-.508-2.098-1.53ZM73.656 16.535v-5.066h.991v3.484h.08l2.334-3.484h.99v5.066h-.99v-3.503h-.075l-2.339 3.503h-.99ZM83.508 12.311h-1.596v4.224h-1v-4.224h-1.596v-.841h4.192v.841ZM88.894 15.167a2.059 2.059 0 0 1-2.196 1.466 2.301 2.301 0 0 1-2.34-2.615 2.337 2.337 0 0 1 2.335-2.647c1.41 0 2.261.963 2.261 2.554v.349h-3.577v.056a1.337 1.337 0 0 0 1.35 1.451 1.215 1.215 0 0 0 1.203-.614h.964Zm-3.517-1.633h2.558a1.222 1.222 0 0 0-1.246-1.312 1.294 1.294 0 0 0-1.312 1.312ZM93.133 11.469h2.284c.99 0 1.572.502 1.572 1.288a1.089 1.089 0 0 1-.856 1.07v.079a1.156 1.156 0 0 1 1.083 1.168c0 .884-.664 1.46-1.776 1.46h-2.307V11.47Zm.99.767v1.312h.992c.604 0 .893-.232.893-.66 0-.396-.252-.652-.782-.652h-1.102Zm0 2.047v1.484h1.186c.591 0 .908-.26.908-.74 0-.507-.358-.744-1.033-.744h-1.06Z" fill="#282739"/></g><defs><clipPath id="aca"><path fill="#fff" transform="translate(.457)" d="M0 0h134.622v45H0z"/></clipPath></defs></svg><svg fill="none" viewBox="0 0 8 5" id="arrow-select" xmlns="http://www.w3.org/2000/svg"><path fill-rule="evenodd" clip-rule="evenodd" d="M7.84 1.316 4.385 4.36a.597.597 0 0 1-.768 0L.159 1.316a.439.439 0 0 1 0-.676.597.597 0 0 1 .768 0L4 3.345 7.073.64a.597.597 0 0 1 .768 0 .439.439 0 0 1 0 .676Z" fill="#282739"/></svg><svg fill="none" viewBox="0 0 7 12" id="arrow-slide-left" xmlns="http://www.w3.org/2000/svg"><path d="M.47 6.53a.75.75 0 0 1 0-1.06L5.243.697a.75.75 0 1 1 1.06 1.06L2.061 6l4.242 4.243a.75.75 0 0 1-1.06 1.06L.47 6.53ZM2 6.75H1v-1.5h1v1.5Z" fill="#fff"/></svg><svg fill="none" viewBox="0 0 7 12" id="arrow-slide-right" xmlns="http://www.w3.org/2000/svg"><path d="M6.53 6.53a.75.75 0 0 0 0-1.06L1.757.697a.75.75 0 0 0-1.06 1.06L4.939 6 .697 10.243a.75.75 0 0 0 1.06 1.06L6.53 6.53ZM5 6.75h1v-1.5H5v1.5Z" fill="#fff"/></svg><svg xml:space="preserve" viewBox="0 0 50 50" id="balance-icon" xmlns="http://www.w3.org/2000/svg"><path fill="none" d="M0 0h50v50H0z"/><path d="M15.494 46A2.503 2.503 0 0 0 13 48.512V49h24v-.488A2.503 2.503 0 0 0 34.506 46H15.494z" fill="#none" stroke="#5D6C7B" stroke-linecap="round" stroke-miterlimit="10" stroke-width="2"/><path d="M23 3a2 2 0 0 1 4 0v43h-4V3zM33 32c1.167 2.911 4.304 5 8 5s6.833-2.089 8-5H33z" fill="none" stroke="#5D6C7B" stroke-linejoin="round" stroke-miterlimit="10" stroke-width="2"/><path d="M22.803 4.796c-2.224-1.222-4.081-3.316-6.424-3.719C13.312.55 9.231 2.892 9.231 2.892M40.768 8.314s-3.062-3.571-6.131-4.099c-2.385-.409-4.879 1-7.432 1.38" fill="none" stroke="#5D6C7B" stroke-linecap="round" stroke-linejoin="round" stroke-miterlimit="10" stroke-width="2"/><path fill="none" stroke="#5D6C7B" stroke-linejoin="round" stroke-miterlimit="10" stroke-width="2" d="M49 32 41 9l-8 23M1 26c1.167 2.911 4.304 5 8 5s6.833-2.089 8-5H1zM17 26 9 3 1 26"/></svg><svg fill="none" viewBox="0 0 29 29" id="close-icon" xmlns="http://www.w3.org/2000/svg"><path fill="#5D6C7B" d="M21.586 7.443 7.444 21.585l-.745-.744L20.841 6.699z"/><path fill="#5D6C7B" d="M20.508 21.92 6.365 7.778l.707-.707 14.143 14.142z"/></svg><svg fill="none" viewBox="0 0 22 22" id="delete" xmlns="http://www.w3.org/2000/svg"><path d="M7.734 3.953h-.171a.172.172 0 0 0 .171-.172v.172h6.532v-.172c0 .095.077.172.171.172h-.171V5.5h1.546V3.781c0-.758-.616-1.375-1.374-1.375H7.561c-.758 0-1.375.617-1.375 1.375V5.5h1.547V3.953ZM18.563 5.5H3.438a.687.687 0 0 0-.688.688v.687c0 .095.077.172.172.172H4.22l.53 11.236c.035.733.64 1.31 1.373 1.31h9.754c.735 0 1.338-.575 1.373-1.31l.53-11.236h1.298a.172.172 0 0 0 .172-.172v-.688a.687.687 0 0 0-.688-.687Zm-2.851 12.547H6.287l-.52-11h10.463l-.52 11Z" fill="#5D6C7B"/></svg><svg fill="none" viewBox="0 0 22 22" id="file-clip" xmlns="http://www.w3.org/2000/svg"><path d="M16.743 4.224a5.197 5.197 0 0 0-7.341 0L3.794 9.828a.193.193 0 0 0-.056.137c0 .052.02.101.056.137l.793.793a.193.193 0 0 0 .273 0l5.607-5.603a3.661 3.661 0 0 1 2.606-1.078c.984 0 1.91.382 2.604 1.078a3.66 3.66 0 0 1 1.079 2.604c0 .984-.383 1.908-1.079 2.604l-5.715 5.713-.926.926a2.221 2.221 0 0 1-3.139 0 2.202 2.202 0 0 1-.648-1.569c0-.593.23-1.15.648-1.568l5.67-5.668a.758.758 0 0 1 .535-.22h.002a.75.75 0 0 1 .53 1.287l-4.633 4.629a.193.193 0 0 0-.056.137c0 .052.02.101.056.138l.793.793a.194.194 0 0 0 .272 0l4.632-4.632c.428-.428.662-.995.662-1.599a2.25 2.25 0 0 0-.662-1.598 2.267 2.267 0 0 0-3.2 0l-.55.552-5.118 5.115a3.7 3.7 0 0 0-1.092 2.636 3.722 3.722 0 0 0 3.728 3.721c.954 0 1.908-.363 2.634-1.089l6.643-6.638a5.165 5.165 0 0 0 1.519-3.67 5.149 5.149 0 0 0-1.52-3.672Z" fill="#282739"/></svg><svg fill="none" viewBox="0 0 35 24" id="g-pay" xmlns="http://www.w3.org/2000/svg"><rect x=".243" y=".56" width="33.59" height="22.881" rx="2.678" fill="#fff" stroke="#EAEBED" stroke-width=".487"/><path fill-rule="evenodd" clip-rule="evenodd" d="M16.095 15.659v-2.941h1.518c.622 0 1.147-.209 1.575-.62l.103-.104a2.118 2.118 0 0 0-.103-2.965 2.167 2.167 0 0 0-1.575-.63h-2.437v7.26h.919Zm0-3.833V9.29h1.54c.332 0 .646.127.88.359a1.29 1.29 0 0 1 .028 1.8 1.193 1.193 0 0 1-.907.377h-1.541Zm7.482-.747c-.394-.365-.93-.55-1.61-.55-.873 0-1.53.324-1.963.967l.81.515c.297-.44.702-.66 1.216-.66.325 0 .64.122.884.342.24.208.377.51.377.828v.214c-.354-.197-.799-.301-1.347-.301-.639 0-1.152.15-1.535.457-.382.307-.576.713-.576 1.228-.012.469.188.915.542 1.216.36.324.816.486 1.352.486.634 0 1.136-.284 1.518-.851h.04v.69h.88v-3.064c0-.643-.195-1.152-.588-1.517Zm-2.494 3.665a.755.755 0 0 1-.303-.608c0-.272.126-.498.371-.677.251-.18.565-.272.936-.272.514-.006.914.11 1.199.341 0 .394-.154.735-.457 1.025a1.45 1.45 0 0 1-1.033.434 1.113 1.113 0 0 1-.713-.243Zm5.056 3.098 3.07-7.15h-.998l-1.421 3.566h-.017l-1.456-3.567h-.998l2.014 4.65-1.141 2.5h.947Z" fill="#282739"/><path d="M12.92 12.081a5.22 5.22 0 0 0-.068-.845H8.977v1.604h2.22a1.933 1.933 0 0 1-.822 1.268v1.042h1.324c.776-.724 1.221-1.795 1.221-3.069Z" fill="#4285F4"/><path d="M8.978 16.157c1.107 0 2.043-.37 2.723-1.007l-1.325-1.042c-.37.255-.844.4-1.398.4-1.073 0-1.98-.736-2.305-1.72H5.309v1.076a4.099 4.099 0 0 0 3.67 2.293Z" fill="#34A853"/><path d="M6.672 12.787a2.55 2.55 0 0 1 0-1.598v-1.07H5.308a4.186 4.186 0 0 0 0 3.74l1.364-1.072Z" fill="#FBBC04"/><path d="M8.978 9.47a2.194 2.194 0 0 1 1.575.625l1.176-1.193a3.935 3.935 0 0 0-2.75-1.082 4.104 4.104 0 0 0-3.67 2.298l1.364 1.077c.325-.99 1.232-1.725 2.305-1.725Z" fill="#EA4335"/></svg><svg fill="none" viewBox="0 0 152 45" id="google-market" xmlns="http://www.w3.org/2000/svg"><g clip-path="url(#ala)"><path d="M145.745 44.888H5.82c-3.079 0-5.597-2.518-5.597-5.597V5.71C.223 2.631 2.74.112 5.82.112h139.925c3.078 0 5.597 2.519 5.597 5.597v33.582c0 3.079-2.519 5.597-5.597 5.597Z" fill="#fff"/><path d="M119.926 33.693h2.089V19.7h-2.089v13.993Zm18.814-8.952-2.394 6.067h-.072l-2.485-6.067h-2.25l3.726 8.48-2.124 4.716h2.179l5.743-13.196h-2.323Zm-11.845 7.363c-.686 0-1.639-.342-1.639-1.188 0-1.08 1.189-1.495 2.214-1.495.919 0 1.35.198 1.908.469a2.531 2.531 0 0 1-2.483 2.214Zm.251-7.67c-1.512 0-3.078.667-3.726 2.143l1.854.774c.396-.774 1.134-1.026 1.908-1.026 1.08 0 2.179.648 2.196 1.8v.144c-.378-.216-1.187-.54-2.178-.54-1.998 0-4.033 1.098-4.033 3.15 0 1.873 1.639 3.08 3.475 3.08 1.404 0 2.178-.63 2.665-1.369h.071v1.08h2.017v-5.365c0-2.484-1.854-3.87-4.249-3.87Zm-12.909 2.01h-2.97v-4.797h2.97c1.562 0 2.449 1.293 2.449 2.399 0 1.084-.887 2.398-2.449 2.398Zm-.053-6.744h-5.005v13.993h2.088v-5.301h2.917c2.315 0 4.59-1.677 4.59-4.346 0-2.67-2.275-4.346-4.59-4.346ZM86.891 32.107c-1.443 0-2.65-1.209-2.65-2.868 0-1.677 1.207-2.903 2.65-2.903 1.425 0 2.543 1.226 2.543 2.903 0 1.66-1.118 2.868-2.543 2.868Zm2.399-6.583h-.072c-.469-.559-1.371-1.064-2.507-1.064-2.38 0-4.563 2.092-4.563 4.779 0 2.67 2.182 4.743 4.563 4.743 1.136 0 2.038-.505 2.507-1.082h.072v.685c0 1.822-.974 2.796-2.543 2.796-1.28 0-2.074-.92-2.399-1.695l-1.82.757c.522 1.262 1.91 2.813 4.22 2.813 2.452 0 4.526-1.443 4.526-4.96V24.75H89.29v.775Zm3.426 8.17h2.092V19.698h-2.092v13.994Zm5.176-4.617c-.054-1.84 1.425-2.777 2.489-2.777.83 0 1.533.414 1.767 1.01l-4.256 1.767Zm6.492-1.587c-.396-1.064-1.605-3.03-4.075-3.03-2.453 0-4.49 1.93-4.49 4.761 0 2.67 2.02 4.761 4.724 4.761 2.182 0 3.445-1.334 3.968-2.11l-1.623-1.082c-.541.794-1.281 1.317-2.345 1.317-1.064 0-1.821-.488-2.308-1.443l6.365-2.633-.216-.541ZM53.666 25.92v2.02H58.5c-.144 1.136-.523 1.965-1.1 2.542-.703.704-1.803 1.48-3.733 1.48-2.975 0-5.302-2.4-5.302-5.375s2.327-5.374 5.302-5.374c1.605 0 2.777.631 3.643 1.443l1.425-1.425c-1.208-1.154-2.814-2.038-5.068-2.038-4.076 0-7.502 3.319-7.502 7.394 0 4.076 3.426 7.394 7.502 7.394 2.2 0 3.86-.721 5.158-2.074 1.334-1.335 1.75-3.21 1.75-4.725 0-.469-.037-.901-.11-1.262h-6.798Zm12.402 6.186c-1.443 0-2.687-1.19-2.687-2.886 0-1.713 1.244-2.885 2.687-2.885 1.442 0 2.687 1.172 2.687 2.885 0 1.695-1.245 2.886-2.687 2.886Zm0-7.647c-2.633 0-4.78 2.002-4.78 4.761 0 2.741 2.147 4.761 4.78 4.761 2.633 0 4.779-2.02 4.779-4.76 0-2.76-2.146-4.762-4.779-4.762Zm10.425 7.647c-1.442 0-2.687-1.19-2.687-2.886 0-1.713 1.245-2.885 2.687-2.885 1.443 0 2.687 1.172 2.687 2.885 0 1.695-1.244 2.886-2.687 2.886Zm0-7.647c-2.633 0-4.779 2.002-4.779 4.761 0 2.741 2.146 4.761 4.78 4.761 2.632 0 4.778-2.02 4.778-4.76 0-2.76-2.146-4.762-4.779-4.762Z" fill="#282739"/><path d="m11.988 36.368-.083-.08c-.326-.344-.518-.88-.518-1.572v.163-24.763.17c0-.75.224-1.316.6-1.655l13.869 13.87-13.868 13.867Zm-.601-26.253Zm.005-.183v-.003.003Zm0-.008v-.001Z" fill="url(#alb)"/><path d="m30.478 27.29.105-.06 5.477-3.113c.523-.297.87-.657 1.044-1.038-.173.381-.521.742-1.044 1.039l-5.477 3.112-.105.06Zm.001-.165-4.623-4.624 4.623-4.624 5.581 3.17c.71.404 1.107.923 1.174 1.453v.002c-.067.53-.465 1.049-1.174 1.452l-5.58 3.171Z" fill="url(#alc)"/><path d="M12.975 36.897a1.44 1.44 0 0 1-.99-.364h.001c.264.237.602.364.99.364a2.082 2.082 0 0 0-.001 0Zm0-.164c-.387 0-.725-.126-.989-.364L25.854 22.5l4.624 4.625-16.249 9.232c-.45.255-.875.376-1.254.376Zm-.993-.203a1.448 1.448 0 0 1-.072-.07l.072.07Z" fill="url(#ald)"/><path d="M25.858 22.5 11.988 8.632c.264-.238.601-.364.989-.364.38 0 .805.121 1.256.377l16.248 9.232-4.623 4.623Zm4.727-4.728-16.352-9.29c-.45-.256-.877-.377-1.257-.377h-.004.006c.379 0 .805.12 1.255.376l16.352 9.291Z" fill="url(#ale)"/><path d="M13.081 36.894c.352-.02.742-.141 1.152-.373l16.247-9.232-16.247 9.232c-.41.232-.8.353-1.152.373Zm-1.092-.361-.004-.003c.002 0 .003.002.004.003Zm-.076-.074-.007-.007.007.007Z" fill="#fff"/><path d="m30.477 27.29.105-.06-.105.06Z" fill="url(#alf)"/><path d="M12.979 36.897c-.387 0-.726-.127-.99-.365l-.004-.002-.072-.07-.007-.008.083-.083c.264.238.602.364.99.364.378 0 .804-.121 1.254-.376l16.248-9.232.104.104-.105.06-16.247 9.231c-.41.233-.8.354-1.152.374a2.085 2.085 0 0 1-.102.003Z" fill="url(#alg)"/><path d="M11.905 36.453c-.326-.345-.518-.88-.518-1.573 0 .693.192 1.227.518 1.572Z" fill="#fff"/><path d="M11.905 36.452c-.326-.344-.518-.88-.518-1.573v-.163c0 .693.192 1.228.518 1.573l.083.08-.083.083Z" fill="url(#alh)"/><path d="m11.906 36.452.083-.083-.083.083Z" fill="url(#ali)"/><path d="M37.105 23.08c.087-.19.13-.384.13-.578V22.5c0 .195-.043.389-.13.578Z" fill="#fff"/><path d="m30.585 27.229-.105-.104 5.582-3.172c.709-.402 1.107-.922 1.173-1.45 0 .193-.043.387-.13.576-.173.381-.521.741-1.043 1.038l-5.477 3.112Z" fill="url(#alj)"/><path d="M37.233 22.5c0-.585-.392-1.171-1.173-1.615l-5.478-3.112 5.478 3.111c.782.445 1.174 1.03 1.173 1.616Z" fill="#282739"/><path d="M37.235 22.5c-.066-.53-.464-1.05-1.173-1.452l-5.581-3.171.104-.104 5.477 3.112c.782.444 1.173 1.03 1.173 1.615Z" fill="url(#alk)"/><path d="M11.387 10.117v-.002.002Zm.005-.182v-.003.003Zm0-.005v-.006.006Zm0-.007c.065-1.15.69-1.814 1.575-1.818a1.44 1.44 0 0 0-.98.364l-.003.002a1.453 1.453 0 0 0-.08.079c-.293.31-.478.776-.512 1.373Z" fill="#282739"/><path d="M11.387 10.286v-.17c0-.063.001-.123.005-.181v-.012c.034-.597.219-1.063.513-1.374l.082.082c-.376.34-.6.905-.6 1.655Zm.597-1.815.004-.003-.004.003Z" fill="url(#all)"/><path d="M30.48 17.877 14.233 8.645c-.45-.255-.877-.377-1.257-.377-.387 0-.724.126-.988.364l-.082-.082c.026-.027.052-.054.08-.079l.003-.002a1.44 1.44 0 0 1 .979-.364h.008c.38 0 .806.121 1.257.376l16.352 9.292-.105.104Z" fill="url(#alm)"/><path d="M48.912 11.268c.013 1.063-.2 1.92-.637 2.57h3.395V8.774h-2.758v2.495Zm-1.548 4.821h-.825v-2.25h.657c.581-.501.866-1.357.854-2.57V7.946h4.484v5.892h.75v2.25h-.826v-1.425h-5.094v1.425Z" fill="#282739"/><path d="m48.915 11.268-.112.002v.09c0 1.006-.21 1.808-.619 2.416l-.117.175h3.718V8.66h-2.982v2.608h.224V8.883h2.534v4.843h-3.283v.112l.092.062c.44-.655.658-1.505.658-2.54l-.001-.094-.112.001h.112-.112Zm-1.548 4.821v-.112h-.713v-2.026H47.24l.031-.027c.605-.523.894-1.392.894-2.582v-.075.001V8.06h4.26v5.892h.75v2.026h-.602v-1.425h-5.318v1.537h.112v-.112.112h.112v-1.313h4.87V16.2h1.049v-2.474h-.75V7.835H47.94v3.507c0 1.158-.28 1.953-.815 2.411l.073.086v-.112h-.768V16.2H47.479v-.112h-.112ZM55.728 13.233a2.467 2.467 0 0 0 1.825.755c.72 0 1.328-.252 1.824-.755.498-.503.747-1.146.747-1.928 0-.781-.25-1.424-.747-1.928a2.464 2.464 0 0 0-1.824-.754c-.72 0-1.327.251-1.825.754-.496.504-.745 1.147-.745 1.928 0 .782.249 1.425.745 1.928Zm4.288.563c-.66.679-1.481 1.018-2.463 1.018s-1.803-.34-2.462-1.018c-.66-.679-.99-1.509-.99-2.49 0-.982.33-1.813.99-2.491.659-.68 1.48-1.018 2.462-1.018.976 0 1.795.34 2.458 1.022.663.682.994 1.51.994 2.486 0 .982-.33 1.812-.99 2.49Z" fill="#282739"/><path d="m55.727 13.234-.08.078c.516.524 1.159.79 1.905.788a2.576 2.576 0 0 0 1.903-.788c.52-.524.78-1.201.78-2.006 0-.805-.26-1.483-.78-2.007a2.576 2.576 0 0 0-1.903-.788 2.579 2.579 0 0 0-1.905.788c-.517.524-.779 1.202-.778 2.007 0 .805.26 1.482.778 2.006l.08-.078.08-.08c-.475-.482-.713-1.09-.714-1.848.001-.758.239-1.366.714-1.85.479-.483 1.051-.72 1.745-.721.693.001 1.266.238 1.744.721l.002.002-.002-.002c.476.484.713 1.091.715 1.85-.002.758-.239 1.366-.715 1.849-.478.483-1.051.72-1.744.721-.694-.001-1.266-.238-1.746-.721l-.08.079Zm4.287.562-.08-.078c-.641.658-1.427.983-2.382.984-.957-.001-1.742-.326-2.382-.984-.64-.66-.957-1.456-.958-2.412.001-.957.317-1.753.958-2.413.64-.657 1.425-.983 2.382-.984.95.001 1.733.328 2.378.989.643.663.96 1.457.962 2.408-.002.956-.319 1.752-.958 2.412l.08.078.08.078c.68-.697 1.023-1.562 1.022-2.568 0-1.001-.344-1.864-1.026-2.564-.682-.703-1.536-1.058-2.538-1.057-1.008-.001-1.865.353-2.543 1.053-.68.697-1.022 1.561-1.02 2.568-.002 1.006.34 1.87 1.02 2.568.678.7 1.535 1.053 2.543 1.052 1.007 0 1.864-.352 2.543-1.052l-.08-.078ZM65.349 14.813c-.988 0-1.817-.334-2.486-1.004-.67-.668-1.004-1.503-1.004-2.504 0-1 .334-1.835 1.004-2.504.669-.67 1.498-1.004 2.486-1.004 1.012 0 1.835.366 2.467 1.097l-.601.582c-.456-.57-1.08-.853-1.866-.853-.733 0-1.35.247-1.853.74-.504.495-.756 1.142-.756 1.942s.252 1.448.756 1.942c.502.494 1.12.74 1.853.74.806 0 1.494-.324 2.064-.974l.6.6c-.307.369-.691.661-1.155.876a3.522 3.522 0 0 1-1.51.324Z" fill="#282739"/><path d="M65.347 14.814v-.112c-.963-.001-1.756-.323-2.406-.971-.65-.65-.97-1.45-.971-2.425 0-.976.321-1.776.97-2.425.65-.65 1.444-.97 2.407-.972.986.002 1.77.35 2.383 1.059l.084-.073-.077-.08-.602.581.078.08.088-.07c-.475-.595-1.14-.897-1.954-.895-.757 0-1.41.26-1.931.773-.527.516-.79 1.199-.789 2.022-.001.823.262 1.507.789 2.021.522.514 1.174.774 1.931.773.838.002 1.563-.342 2.148-1.013l-.084-.074-.079.08.6.6.08-.08-.087-.071a3.154 3.154 0 0 1-1.115.846 3.414 3.414 0 0 1-1.463.314v.224c.558 0 1.08-.111 1.557-.335a3.372 3.372 0 0 0 1.193-.906l.066-.078-.672-.673-.085-.085-.079.09c-.554.63-1.203.936-1.98.937-.707-.001-1.29-.234-1.774-.709-.481-.472-.721-1.084-.722-1.861.001-.778.24-1.389.722-1.862.484-.474 1.067-.708 1.774-.71.76.003 1.342.27 1.779.812l.077.097.69-.668.075-.074-.069-.08c-.65-.755-1.513-1.137-2.552-1.136-1.013 0-1.877.348-2.565 1.037-.69.688-1.037 1.559-1.036 2.584-.001 1.025.345 1.895 1.036 2.583.688.69 1.552 1.038 2.565 1.037v-.112ZM71.505 14.664h-.864V8.772h-1.875v-.825h4.615v.825h-1.876v5.892Z" fill="#282739"/><path d="M71.504 14.664v-.112h-.752V8.661h-1.876v-.602h4.392v.602h-1.876v6.003h.112v-.112.112h.112v-5.78h1.876V7.837h-4.84V8.885h1.876v5.89h1.088v-.111h-.112ZM75.256 12.036h2.232L76.39 9.007h-.037l-1.097 3.03Zm-1.904 2.628 2.533-6.717h.974l2.533 6.717h-.956l-.648-1.82h-2.823l-.657 1.82h-.956Z" fill="#282739"/><path d="M75.254 12.037v.112h2.391l-1.179-3.253h-.194l-1.178 3.253h.16v-.112l.105.038 1.097-3.03-.105-.038v.112h.037v-.112l-.106.039 1.044 2.879h-2.072v.112l.105.038-.105-.038Zm-1.905 2.627.105.04 2.506-6.645h.82l2.448 6.493h-.716l-.647-1.82h-2.98l-.658 1.82h-.878v.112l.105.04-.105-.04v.112h1.036l.657-1.82h2.665l.647 1.82h1.198l-2.618-6.94h-1.129l-2.618 6.94h.162v-.112ZM80.367 14.664V7.947h4.86v6.717h-.864V8.772H81.23v5.892h-.863Z" fill="#282739"/><path d="M80.366 14.664h.112V8.059h4.635v6.493h-.64V8.661h-3.356v5.891h-.751v.112h.112-.112v.112h.975V8.885h2.909v5.89h1.087v-6.94h-5.083v6.94h.112v-.111ZM86.766 14.664V7.947h.862v2.88h3.359v-2.88h.863v6.717h-.863v-3.03h-3.358v3.03h-.863Z" fill="#282739"/><path d="M86.764 14.664h.112V8.059h.64l-.001 2.88h3.582v-2.88h.64v6.493h-.64v-3.03h-3.582v3.03h-.75v.112h.111-.112v.112h.975v-3.03h3.134v3.03h1.087v-6.94h-1.087v2.879h-3.134v-2.88h-1.087v6.94h.112v-.111ZM94.591 13.233a2.466 2.466 0 0 0 1.825.755c.72 0 1.328-.252 1.825-.755.497-.503.746-1.146.746-1.928 0-.781-.25-1.424-.746-1.928a2.465 2.465 0 0 0-1.825-.754c-.72 0-1.327.251-1.825.754-.496.504-.745 1.147-.745 1.928 0 .782.25 1.425.745 1.928Zm4.288.563c-.66.679-1.481 1.018-2.463 1.018-.981 0-1.803-.34-2.462-1.018-.66-.679-.99-1.509-.99-2.49 0-.982.33-1.813.99-2.491.66-.68 1.48-1.018 2.462-1.018.976 0 1.795.34 2.459 1.022.662.682.993 1.51.993 2.486 0 .982-.33 1.812-.99 2.49Z" fill="#282739"/><path d="m94.59 13.234-.08.078c.516.524 1.16.79 1.904.788a2.577 2.577 0 0 0 1.905-.788c.519-.524.78-1.201.779-2.006 0-.805-.26-1.483-.78-2.007a2.578 2.578 0 0 0-1.904-.788 2.579 2.579 0 0 0-1.904.788c-.517.524-.778 1.202-.777 2.007-.001.805.26 1.482.777 2.006l.08-.078.08-.08c-.475-.482-.713-1.09-.713-1.848s.238-1.366.713-1.85c.479-.483 1.051-.72 1.744-.721.694.001 1.268.238 1.745.721l.004.004-.004-.004c.476.484.714 1.091.715 1.85-.001.758-.239 1.366-.715 1.849-.477.483-1.051.72-1.745.721-.693-.001-1.265-.238-1.744-.721l-.08.079Zm4.287.562-.08-.078c-.641.658-1.426.983-2.383.984-.956-.001-1.74-.326-2.38-.984l-.004-.003.003.003c-.64-.66-.957-1.456-.958-2.412.001-.957.317-1.753.958-2.413.64-.657 1.425-.983 2.381-.984.95.001 1.734.328 2.38.989.642.663.96 1.457.961 2.408-.001.956-.318 1.752-.958 2.412l.08.078.081.078c.679-.697 1.022-1.562 1.021-2.568 0-1.001-.344-1.864-1.025-2.564-.682-.703-1.537-1.058-2.54-1.057-1.007-.001-1.864.353-2.541 1.053-.68.697-1.022 1.561-1.021 2.568-.001 1.006.34 1.87 1.02 2.568.678.7 1.535 1.053 2.542 1.052 1.008 0 1.865-.352 2.544-1.052l-.08-.078ZM103.398 14.664V7.947h.862v2.88h3.359v-2.88h.864v6.717h-.864v-3.03h-3.359v3.03h-.862Z" fill="#282739"/><path d="M103.397 14.664h.112V8.059h.638v2.88h3.582v-2.88h.64v6.493h-.64v-3.03h-3.582v3.03h-.75v.112h.112-.112v.112h.974v-3.03h3.134v3.03h1.088v-6.94h-1.088v2.879h-3.134v-2.88h-1.086v6.94h.112v-.111ZM111.361 12.036h2.232l-1.097-3.029h-.037l-1.098 3.03Zm-1.904 2.628 2.533-6.717h.975l2.533 6.717h-.957l-.647-1.82h-2.824l-.656 1.82h-.957Z" fill="#282739"/><path d="M111.359 12.037v.112h2.393l-1.179-3.253h-.194l-1.179 3.253h.159v-.112l.106.038 1.098-3.03-.105-.038v.112h.036v-.112l-.105.039 1.044 2.879h-2.074v.112l.106.038-.106-.038Zm-1.904 2.627.106.04 2.505-6.645h.82l2.448 6.493h-.715l-.648-1.82h-2.981l-.657 1.82h-.878v.112l.106.04-.106-.04v.112h1.036l.657-1.82h2.665l.647 1.82h1.198l-2.617-6.94h-1.13l-2.618 6.94h.162v-.112Z" fill="#282739"/></g><defs><linearGradient id="alb" x1="24.626" y1="9.861" x2="5.84" y2="28.647" gradientUnits="userSpaceOnUse"><stop stop-color="#00A0FF"/><stop offset=".007" stop-color="#00A1FF"/><stop offset=".26" stop-color="#00BEFF"/><stop offset=".512" stop-color="#00D2FF"/><stop offset=".76" stop-color="#00DFFF"/><stop offset="1" stop-color="#00E3FF"/></linearGradient><linearGradient id="alc" x1="38.097" y1="22.501" x2="11.011" y2="22.501" gradientUnits="userSpaceOnUse"><stop stop-color="#FFE000"/><stop offset=".409" stop-color="#FFBD00"/><stop offset=".775" stop-color="orange"/><stop offset="1" stop-color="#FF9C00"/></linearGradient><linearGradient id="ald" x1="28.013" y1="25.07" x2="2.537" y2="50.545" gradientUnits="userSpaceOnUse"><stop stop-color="#FF3A44"/><stop offset="1" stop-color="#C31162"/></linearGradient><linearGradient id="ale" x1="8.394" y1=".309" x2="19.77" y2="11.685" gradientUnits="userSpaceOnUse"><stop stop-color="#32A071"/><stop offset=".069" stop-color="#2DA771"/><stop offset=".476" stop-color="#15CF74"/><stop offset=".801" stop-color="#06E775"/><stop offset="1" stop-color="#00F076"/></linearGradient><linearGradient id="alf" x1="38.096" y1="22.502" x2="11.009" y2="22.502" gradientUnits="userSpaceOnUse"><stop stop-color="#CCB300"/><stop offset=".409" stop-color="#CC9700"/><stop offset=".775" stop-color="#CC8400"/><stop offset="1" stop-color="#CC7D00"/></linearGradient><linearGradient id="alg" x1="28.016" y1="25.07" x2="2.54" y2="50.545" gradientUnits="userSpaceOnUse"><stop stop-color="#CC2E36"/><stop offset="1" stop-color="#9C0E4E"/></linearGradient><linearGradient id="alh" x1="24.626" y1="9.861" x2="5.84" y2="28.648" gradientUnits="userSpaceOnUse"><stop stop-color="#008DE0"/><stop offset=".007" stop-color="#008DE0"/><stop offset=".26" stop-color="#00A7E0"/><stop offset=".512" stop-color="#00B8E0"/><stop offset=".76" stop-color="#00C4E0"/><stop offset="1" stop-color="#00C7E0"/></linearGradient><linearGradient id="ali" x1="28.017" y1="25.07" x2="2.542" y2="50.547" gradientUnits="userSpaceOnUse"><stop stop-color="#E0333C"/><stop offset="1" stop-color="#AB0F56"/></linearGradient><linearGradient id="alj" x1="38.099" y1="22.501" x2="11.012" y2="22.501" gradientUnits="userSpaceOnUse"><stop stop-color="#E0C500"/><stop offset=".409" stop-color="#E0A600"/><stop offset=".775" stop-color="#E09100"/><stop offset="1" stop-color="#E08900"/></linearGradient><linearGradient id="alk" x1="38.099" y1="22.501" x2="11.013" y2="22.501" gradientUnits="userSpaceOnUse"><stop stop-color="#FFE840"/><stop offset=".409" stop-color="#FFCE40"/><stop offset=".775" stop-color="#FFBC40"/><stop offset="1" stop-color="#FFB540"/></linearGradient><linearGradient id="all" x1="24.626" y1="9.861" x2="5.84" y2="28.647" gradientUnits="userSpaceOnUse"><stop stop-color="#40B8FF"/><stop offset=".007" stop-color="#40B9FF"/><stop offset=".26" stop-color="#40CEFF"/><stop offset=".512" stop-color="#40DDFF"/><stop offset=".76" stop-color="#40E7FF"/><stop offset="1" stop-color="#40EAFF"/></linearGradient><linearGradient id="alm" x1="8.393" y1=".309" x2="19.769" y2="11.685" gradientUnits="userSpaceOnUse"><stop stop-color="#65B895"/><stop offset=".069" stop-color="#62BD95"/><stop offset=".476" stop-color="#50DB97"/><stop offset=".801" stop-color="#44ED98"/><stop offset="1" stop-color="#40F498"/></linearGradient><clipPath id="ala"><path fill="#fff" d="M0 0h151.455v45H0z"/></clipPath></defs></svg><svg fill="none" viewBox="0 0 20 20" id="home-icon" xmlns="http://www.w3.org/2000/svg"><path d="m18.488 9.864-7.546-7.543-.506-.506a.615.615 0 0 0-.868 0l-8.052 8.05a1.248 1.248 0 0 0-.367.898c.007.687.58 1.236 1.267 1.236h.83v6.361h13.512V12h.848a1.244 1.244 0 0 0 1.156-.774c.062-.152.094-.315.093-.479 0-.332-.13-.646-.367-.883Zm-7.392 7.09H8.908V12.97h2.188v3.984Zm4.256-6.361v6.361h-3.006v-4.453a.781.781 0 0 0-.781-.781H8.44a.781.781 0 0 0-.782.781v4.453H4.652v-6.361H2.777l7.227-7.22.451.45 6.774 6.77h-1.877Z" fill="#5D6C7B"/></svg><svg fill="none" viewBox="0 0 36 24" id="i-pay" xmlns="http://www.w3.org/2000/svg"><rect x="1.189" y=".56" width="33.59" height="22.881" rx="2.678" fill="#fff" stroke="#EAEBED" stroke-width=".487"/><path fill-rule="evenodd" clip-rule="evenodd" d="M10.272 8.44c-.286.342-.744.612-1.202.574-.057-.463.167-.956.43-1.26.286-.352.786-.603 1.191-.622.048.482-.138.955-.42 1.308Zm.415.666c-.404-.024-.772.122-1.069.24-.19.076-.353.14-.476.14-.138 0-.307-.067-.496-.143-.248-.1-.532-.214-.83-.208-.681.01-1.315.4-1.663 1.023-.715 1.245-.186 3.088.505 4.101.339.502.744 1.052 1.278 1.033.235-.009.404-.082.579-.157.2-.086.41-.176.737-.176.315 0 .515.088.707.172.182.08.358.156.618.151.553-.01.9-.501 1.24-1.003.365-.539.525-1.065.55-1.144l.002-.01-.013-.006c-.122-.057-1.055-.49-1.064-1.649-.009-.973.74-1.466.858-1.544l.014-.01c-.476-.714-1.22-.791-1.477-.81Zm3.828 6.123V7.706h2.788c1.44 0 2.446 1.004 2.446 2.47 0 1.468-1.025 2.481-2.484 2.481h-1.597v2.572h-1.153Zm1.153-6.539h1.33c1.001 0 1.573.54 1.573 1.492 0 .95-.572 1.495-1.578 1.495h-1.325V8.69Zm7.89 5.637c-.305.588-.977.96-1.702.96-1.073 0-1.82-.647-1.82-1.621 0-.965.724-1.52 2.063-1.602l1.44-.087v-.415c0-.613-.396-.946-1.101-.946-.582 0-1.006.304-1.092.767h-1.04c.034-.975.94-1.684 2.165-1.684 1.32 0 2.179.7 2.179 1.786v3.744h-1.068v-.902h-.024Zm-1.392.067c-.615 0-1.006-.299-1.006-.757 0-.473.377-.748 1.096-.792l1.283-.082v.425c0 .704-.591 1.206-1.373 1.206Zm6.026 1.13c-.463 1.317-.992 1.751-2.117 1.751a3.14 3.14 0 0 1-.438-.029v-.902c.071.01.247.02.338.02.51 0 .796-.218.973-.782l.104-.333-1.954-5.477h1.206l1.359 4.444h.023l1.359-4.444h1.173l-2.026 5.752Z" fill="#282739"/></svg><svg fill="none" viewBox="0 0 20 20" id="inst" xmlns="http://www.w3.org/2000/svg"><g clip-path="url(#aoa)"><path d="M13.75 0h-7.5A6.25 6.25 0 0 0 0 6.25v7.5A6.25 6.25 0 0 0 6.25 20h7.5A6.25 6.25 0 0 0 20 13.75v-7.5A6.25 6.25 0 0 0 13.75 0Zm4.375 13.75a4.38 4.38 0 0 1-4.375 4.375h-7.5a4.38 4.38 0 0 1-4.375-4.375v-7.5A4.38 4.38 0 0 1 6.25 1.875h7.5a4.38 4.38 0 0 1 4.375 4.375v7.5Z" fill="url(#aob)"/><path d="M10 5a5 5 0 1 0 0 10 5 5 0 0 0 0-10Zm0 8.125A3.13 3.13 0 0 1 6.875 10 3.129 3.129 0 0 1 10 6.875 3.129 3.129 0 0 1 13.125 10 3.13 3.13 0 0 1 10 13.125Z" fill="url(#aoc)"/><path d="M15.373 5.291a.666.666 0 1 0 0-1.332.666.666 0 0 0 0 1.332Z" fill="url(#aod)"/></g><defs><linearGradient id="aob" x1="1.831" y1="18.169" x2="18.169" y2="1.831" gradientUnits="userSpaceOnUse"><stop stop-color="#FFC107"/><stop offset=".507" stop-color="#F44336"/><stop offset=".99" stop-color="#9C27B0"/></linearGradient><linearGradient id="aoc" x1="6.465" y1="13.535" x2="13.535" y2="6.465" gradientUnits="userSpaceOnUse"><stop stop-color="#FFC107"/><stop offset=".507" stop-color="#F44336"/><stop offset=".99" stop-color="#9C27B0"/></linearGradient><linearGradient id="aod" x1="14.902" y1="5.096" x2="15.844" y2="4.154" gradientUnits="userSpaceOnUse"><stop stop-color="#FFC107"/><stop offset=".507" stop-color="#F44336"/><stop offset=".99" stop-color="#9C27B0"/></linearGradient><clipPath id="aoa"><path fill="#fff" d="M0 0h20v20H0z"/></clipPath></defs></svg><svg fill="none" viewBox="0 0 20 20" id="instagram-icon" xmlns="http://www.w3.org/2000/svg"><g clip-path="url(#apa)"><path d="M13.75 0h-7.5A6.25 6.25 0 0 0 0 6.25v7.5A6.25 6.25 0 0 0 6.25 20h7.5A6.25 6.25 0 0 0 20 13.75v-7.5A6.25 6.25 0 0 0 13.75 0Zm4.375 13.75a4.38 4.38 0 0 1-4.375 4.375h-7.5a4.38 4.38 0 0 1-4.375-4.375v-7.5A4.38 4.38 0 0 1 6.25 1.875h7.5a4.38 4.38 0 0 1 4.375 4.375v7.5Z" fill="url(#apb)"/><path d="M10 5a5 5 0 1 0 0 10 5 5 0 0 0 0-10Zm0 8.125A3.13 3.13 0 0 1 6.875 10 3.129 3.129 0 0 1 10 6.875 3.129 3.129 0 0 1 13.125 10 3.13 3.13 0 0 1 10 13.125Z" fill="url(#apc)"/><path d="M15.373 5.291a.666.666 0 1 0 0-1.332.666.666 0 0 0 0 1.332Z" fill="url(#apd)"/></g><defs><linearGradient id="apb" x1="1.831" y1="18.169" x2="18.169" y2="1.831" gradientUnits="userSpaceOnUse"><stop fill="#FFC107"/><stop offset=".507" fill="#F44336"/><stop offset=".99" fill="#9C27B0"/></linearGradient><linearGradient id="apc" x1="6.465" y1="13.535" x2="13.535" y2="6.465" gradientUnits="userSpaceOnUse"><stop fill="#FFC107"/><stop offset=".507" fill="#F44336"/><stop offset=".99" fill="#9C27B0"/></linearGradient><linearGradient id="apd" x1="14.902" y1="5.096" x2="15.844" y2="4.154" gradientUnits="userSpaceOnUse"><stop fill="#FFC107"/><stop offset=".507" fill="#F44336"/><stop offset=".99" fill="#9C27B0"/></linearGradient><clipPath id="apa"><path fill="#fff" d="M0 0h20v20H0z"/></clipPath></defs></svg><svg fill="none" viewBox="0 0 20 20" id="like-icon" xmlns="http://www.w3.org/2000/svg"><path d="M17.995 5.515A5.138 5.138 0 0 0 13.264 2.4a5.155 5.155 0 0 0-3.261 1.16A5.155 5.155 0 0 0 6.741 2.4c-.691 0-1.36.133-1.992.399a5.127 5.127 0 0 0-3.148 4.717c0 .654.132 1.336.394 2.029.22.58.535 1.18.938 1.787.638.96 1.515 1.962 2.604 2.978a29.144 29.144 0 0 0 3.667 2.893l.461.298a.62.62 0 0 0 .671 0l.46-.298c.077-.05 1.862-1.21 3.668-2.893 1.09-1.016 1.967-2.017 2.604-2.978.403-.607.72-1.208.938-1.787a5.733 5.733 0 0 0 .394-2.029 5.042 5.042 0 0 0-.406-2.001Zm-7.993 10.433S3.08 11.468 3.08 7.516c0-2.001 1.639-3.623 3.661-3.623 1.422 0 2.655.8 3.261 1.971a3.668 3.668 0 0 1 3.262-1.971c2.022 0 3.662 1.622 3.662 3.623 0 3.952-6.923 8.432-6.923 8.432Z" fill="#5D6C7B"/></svg><svg viewBox="0 0 51 39" id="logo" xmlns="http://www.w3.org/2000/svg"><path fill-rule="evenodd" fill="#A3BBC8" d="M49.728 38.647c-.405.33-.903.213-.908.212L.779 29.061c-.014-.003-.382-.075-.622-.387-.239-.311-.157-.666-.067-.848.088-.18 6.411-12.931 6.582-13.256.171-.325.375-.387.507-.452L42.373.068s.57-.188.965.051a.961.961 0 0 1 .449.645l6.251 37.079s.094.475-.31.804Zm-6.251-2.699L22.949 24.537l-17.523 3.65 38.051 7.761Zm2.266-.838-9.711-13.304-10.339 2.159 20.05 11.145ZM2.736 26.924l17.833-3.714-12.522-6.983-5.311 10.697Zm6.973-11.869 13.601 7.584 12.372-2.583L41.24 2.468 9.709 15.055Zm32.778-9.922-4.903 15.52 9.779 13.397-4.876-28.917Z"/></svg><svg fill="none" viewBox="0 0 25 30" id="lpay-icon" xmlns="http://www.w3.org/2000/svg"><path d="M24 13.268c1.333.77 1.333 2.694 0 3.464L3 28.856c-1.333.77-3-.192-3-1.732V2.876C0 1.336 1.667.374 3 1.144l21 12.124Z" fill="#fff"/></svg><svg fill="none" viewBox="0 0 35 24" id="mas-pay" xmlns="http://www.w3.org/2000/svg"><rect x="1.025" y=".56" width="33.59" height="22.881" rx="2.678" fill="#fff" stroke="#EAEBED" stroke-width=".487"/><path d="M20.346 12.123c0 3.712-2.974 6.721-6.643 6.721-3.67 0-6.644-3.009-6.644-6.72 0-3.713 2.974-6.722 6.644-6.722 3.669 0 6.643 3.01 6.643 6.721Z" fill="#ED0006"/><path d="M28.963 12.123c0 3.712-2.974 6.721-6.643 6.721-3.67 0-6.644-3.009-6.644-6.72 0-3.713 2.974-6.722 6.644-6.722 3.669 0 6.643 3.01 6.643 6.721Z" fill="#0099DF"/><path fill-rule="evenodd" clip-rule="evenodd" d="M18.014 17.24a6.738 6.738 0 0 0 2.334-5.116 6.738 6.738 0 0 0-2.334-5.116 6.738 6.738 0 0 0-2.334 5.116c0 2.048.905 3.882 2.334 5.115Z" fill="#6C6BBD"/></svg><svg fill="none" viewBox="0 0 35 24" id="master-pay" xmlns="http://www.w3.org/2000/svg"><rect x="1.079" y=".56" width="33.59" height="22.881" rx="2.678" fill="#fff" stroke="#EAEBED" stroke-width=".487"/><path fill-rule="evenodd" clip-rule="evenodd" d="M18.067 17.239a6.573 6.573 0 0 1-4.31 1.605c-3.67 0-6.644-3.009-6.644-6.72 0-3.713 2.975-6.722 6.644-6.722 1.645 0 3.15.605 4.31 1.606a6.573 6.573 0 0 1 4.31-1.605c3.669 0 6.643 3.009 6.643 6.72 0 3.713-2.974 6.722-6.644 6.722a6.573 6.573 0 0 1-4.31-1.606Z" fill="#ED0006"/><path fill-rule="evenodd" clip-rule="evenodd" d="M18.066 17.24a6.738 6.738 0 0 0 2.335-5.116 6.738 6.738 0 0 0-2.335-5.116 6.573 6.573 0 0 1 4.31-1.605c3.67 0 6.644 3.009 6.644 6.72 0 3.713-2.975 6.722-6.644 6.722a6.573 6.573 0 0 1-4.31-1.606Z" fill="#F9A000"/><path fill-rule="evenodd" clip-rule="evenodd" d="M18.069 17.24a6.738 6.738 0 0 0 2.334-5.116 6.738 6.738 0 0 0-2.334-5.116 6.738 6.738 0 0 0-2.335 5.116c0 2.048.906 3.882 2.335 5.115Z" fill="#FF5E00"/></svg><svg fill="none" viewBox="0 0 16 16" id="phone-icon" xmlns="http://www.w3.org/2000/svg"><g clip-path="url(#ava)"><path d="M14.716 10.502c-.98 0-1.941-.153-2.853-.454-.446-.153-.995-.013-1.268.267l-1.799 1.358C6.71 10.56 5.424 9.275 4.326 7.204l1.318-1.752c.343-.342.465-.842.318-1.31a9.098 9.098 0 0 1-.456-2.858C5.506.576 4.93 0 4.222 0H1.284C.576 0 0 .576 0 1.284 0 9.398 6.602 16 14.716 16c.708 0 1.284-.576 1.284-1.284v-2.93c0-.708-.576-1.284-1.284-1.284Z" fill="#6F73EE"/></g><defs><clipPath id="ava"><path fill="#fff" d="M0 0h16v16H0z"/></clipPath></defs></svg><svg fill="none" viewBox="0 0 152 45" id="play-market" xmlns="http://www.w3.org/2000/svg"><g clip-path="url(#awa)"><path d="M145.745 44.888H5.82c-3.079 0-5.597-2.518-5.597-5.597V5.71C.223 2.631 2.74.112 5.82.112h139.925c3.078 0 5.597 2.519 5.597 5.597v33.582c0 3.079-2.519 5.597-5.597 5.597Z" fill="#fff"/><path d="M119.926 33.693h2.089V19.7h-2.089v13.993Zm18.814-8.952-2.394 6.067h-.072l-2.485-6.067h-2.25l3.726 8.48-2.124 4.716h2.179l5.743-13.196h-2.323Zm-11.845 7.363c-.686 0-1.639-.342-1.639-1.188 0-1.08 1.189-1.495 2.214-1.495.919 0 1.35.198 1.908.469a2.531 2.531 0 0 1-2.483 2.214Zm.251-7.67c-1.512 0-3.078.667-3.726 2.143l1.854.774c.396-.774 1.134-1.026 1.908-1.026 1.08 0 2.179.648 2.196 1.8v.144c-.378-.216-1.187-.54-2.178-.54-1.998 0-4.033 1.098-4.033 3.15 0 1.873 1.639 3.08 3.475 3.08 1.404 0 2.178-.63 2.665-1.369h.071v1.08h2.017v-5.365c0-2.484-1.854-3.87-4.249-3.87Zm-12.909 2.01h-2.97v-4.797h2.97c1.562 0 2.449 1.293 2.449 2.399 0 1.084-.887 2.398-2.449 2.398Zm-.053-6.744h-5.005v13.993h2.088v-5.301h2.917c2.315 0 4.59-1.677 4.59-4.346 0-2.67-2.275-4.346-4.59-4.346ZM86.891 32.107c-1.443 0-2.65-1.209-2.65-2.868 0-1.677 1.207-2.903 2.65-2.903 1.425 0 2.543 1.226 2.543 2.903 0 1.66-1.118 2.868-2.543 2.868Zm2.399-6.583h-.072c-.469-.559-1.371-1.064-2.507-1.064-2.38 0-4.563 2.092-4.563 4.779 0 2.67 2.182 4.743 4.563 4.743 1.136 0 2.038-.505 2.507-1.082h.072v.685c0 1.822-.974 2.796-2.543 2.796-1.28 0-2.074-.92-2.399-1.695l-1.82.757c.522 1.262 1.91 2.813 4.22 2.813 2.452 0 4.526-1.443 4.526-4.96V24.75H89.29v.775Zm3.426 8.17h2.092V19.698h-2.092v13.994Zm5.176-4.617c-.054-1.84 1.425-2.777 2.489-2.777.83 0 1.533.414 1.767 1.01l-4.256 1.767Zm6.492-1.587c-.396-1.064-1.605-3.03-4.075-3.03-2.453 0-4.49 1.93-4.49 4.761 0 2.67 2.02 4.761 4.724 4.761 2.182 0 3.445-1.334 3.968-2.11l-1.623-1.082c-.541.794-1.281 1.317-2.345 1.317-1.064 0-1.821-.488-2.308-1.443l6.365-2.633-.216-.541ZM53.666 25.92v2.02H58.5c-.144 1.136-.523 1.965-1.1 2.542-.703.704-1.803 1.48-3.733 1.48-2.975 0-5.302-2.4-5.302-5.375s2.327-5.374 5.302-5.374c1.605 0 2.777.631 3.643 1.443l1.425-1.425c-1.208-1.154-2.814-2.038-5.068-2.038-4.076 0-7.502 3.319-7.502 7.394 0 4.076 3.426 7.394 7.502 7.394 2.2 0 3.86-.721 5.158-2.074 1.334-1.335 1.75-3.21 1.75-4.725 0-.469-.037-.901-.11-1.262h-6.798Zm12.402 6.186c-1.443 0-2.687-1.19-2.687-2.886 0-1.713 1.244-2.885 2.687-2.885 1.442 0 2.687 1.172 2.687 2.885 0 1.695-1.245 2.886-2.687 2.886Zm0-7.647c-2.633 0-4.78 2.002-4.78 4.761 0 2.741 2.147 4.761 4.78 4.761 2.633 0 4.779-2.02 4.779-4.76 0-2.76-2.146-4.762-4.779-4.762Zm10.425 7.647c-1.442 0-2.687-1.19-2.687-2.886 0-1.713 1.245-2.885 2.687-2.885 1.443 0 2.687 1.172 2.687 2.885 0 1.695-1.244 2.886-2.687 2.886Zm0-7.647c-2.633 0-4.779 2.002-4.779 4.761 0 2.741 2.146 4.761 4.78 4.761 2.632 0 4.778-2.02 4.778-4.76 0-2.76-2.146-4.762-4.779-4.762Z" fill="#282739"/><path d="m11.988 36.368-.083-.08c-.326-.344-.518-.88-.518-1.572v.163-24.763.17c0-.75.224-1.316.6-1.655l13.869 13.87-13.868 13.867Zm-.601-26.253Zm.005-.183v-.003.003Zm0-.008v-.001Z" fill="url(#awb)"/><path d="m30.478 27.29.105-.06 5.477-3.113c.523-.297.87-.657 1.044-1.038-.173.381-.521.742-1.044 1.039l-5.477 3.112-.105.06Zm.001-.165-4.623-4.624 4.623-4.624 5.581 3.17c.71.404 1.107.923 1.174 1.453v.002c-.067.53-.465 1.049-1.174 1.452l-5.58 3.171Z" fill="url(#awc)"/><path d="M12.975 36.897a1.44 1.44 0 0 1-.99-.364h.001c.264.237.602.364.99.364a2.082 2.082 0 0 0-.001 0Zm0-.164c-.387 0-.725-.126-.989-.364L25.854 22.5l4.624 4.625-16.249 9.232c-.45.255-.875.376-1.254.376Zm-.993-.203a1.448 1.448 0 0 1-.072-.07l.072.07Z" fill="url(#awd)"/><path d="M25.858 22.5 11.988 8.632c.264-.238.601-.364.989-.364.38 0 .805.121 1.256.377l16.248 9.232-4.623 4.623Zm4.727-4.728-16.352-9.29c-.45-.256-.877-.377-1.257-.377h-.004.006c.379 0 .805.12 1.255.376l16.352 9.291Z" fill="url(#awe)"/><path d="M13.081 36.894c.352-.02.742-.141 1.152-.373l16.247-9.232-16.247 9.232c-.41.232-.8.353-1.152.373Zm-1.092-.361-.004-.003c.002 0 .003.002.004.003Zm-.076-.074-.007-.007.007.007Z" fill="#fff"/><path d="m30.477 27.29.105-.06-.105.06Z" fill="url(#awf)"/><path d="M12.979 36.897c-.387 0-.726-.127-.99-.365l-.004-.002-.072-.07-.007-.008.083-.083c.264.238.602.364.99.364.378 0 .804-.121 1.254-.376l16.248-9.232.104.104-.105.06-16.247 9.231c-.41.233-.8.354-1.152.374a2.085 2.085 0 0 1-.102.003Z" fill="url(#awg)"/><path d="M11.905 36.453c-.326-.345-.518-.88-.518-1.573 0 .693.192 1.227.518 1.572Z" fill="#fff"/><path d="M11.905 36.452c-.326-.344-.518-.88-.518-1.573v-.163c0 .693.192 1.228.518 1.573l.083.08-.083.083Z" fill="url(#awh)"/><path d="m11.906 36.452.083-.083-.083.083Z" fill="url(#awi)"/><path d="M37.105 23.08c.087-.19.13-.384.13-.578V22.5c0 .195-.043.389-.13.578Z" fill="#fff"/><path d="m30.585 27.229-.105-.104 5.582-3.172c.709-.402 1.107-.922 1.173-1.45 0 .193-.043.387-.13.576-.173.381-.521.741-1.043 1.038l-5.477 3.112Z" fill="url(#awj)"/><path d="M37.233 22.5c0-.585-.392-1.171-1.173-1.615l-5.478-3.112 5.478 3.111c.782.445 1.174 1.03 1.173 1.616Z" fill="#282739"/><path d="M37.235 22.5c-.066-.53-.464-1.05-1.173-1.452l-5.581-3.171.104-.104 5.477 3.112c.782.444 1.173 1.03 1.173 1.615Z" fill="url(#awk)"/><path d="M11.387 10.117v-.002.002Zm.005-.182v-.003.003Zm0-.005v-.006.006Zm0-.007c.065-1.15.69-1.814 1.575-1.818a1.44 1.44 0 0 0-.98.364l-.003.002a1.453 1.453 0 0 0-.08.079c-.293.31-.478.776-.512 1.373Z" fill="#282739"/><path d="M11.387 10.286v-.17c0-.063.001-.123.005-.181v-.012c.034-.597.219-1.063.513-1.374l.082.082c-.376.34-.6.905-.6 1.655Zm.597-1.815.004-.003-.004.003Z" fill="url(#awl)"/><path d="M30.48 17.877 14.233 8.645c-.45-.255-.877-.377-1.257-.377-.387 0-.724.126-.988.364l-.082-.082c.026-.027.052-.054.08-.079l.003-.002a1.44 1.44 0 0 1 .979-.364h.008c.38 0 .806.121 1.257.376l16.352 9.292-.105.104Z" fill="url(#awm)"/><path d="M48.912 11.268c.013 1.063-.2 1.92-.637 2.57h3.395V8.774h-2.758v2.495Zm-1.548 4.821h-.825v-2.25h.657c.581-.501.866-1.357.854-2.57V7.946h4.484v5.892h.75v2.25h-.826v-1.425h-5.094v1.425Z" fill="#282739"/><path d="m48.915 11.268-.112.002v.09c0 1.006-.21 1.808-.619 2.416l-.117.175h3.718V8.66h-2.982v2.608h.224V8.883h2.534v4.843h-3.283v.112l.092.062c.44-.655.658-1.505.658-2.54l-.001-.094-.112.001h.112-.112Zm-1.548 4.821v-.112h-.713v-2.026H47.24l.031-.027c.605-.523.894-1.392.894-2.582v-.075.001V8.06h4.26v5.892h.75v2.026h-.602v-1.425h-5.318v1.537h.112v-.112.112h.112v-1.313h4.87V16.2h1.049v-2.474h-.75V7.835H47.94v3.507c0 1.158-.28 1.953-.815 2.411l.073.086v-.112h-.768V16.2H47.479v-.112h-.112ZM55.728 13.233a2.467 2.467 0 0 0 1.825.755c.72 0 1.328-.252 1.824-.755.498-.503.747-1.146.747-1.928 0-.781-.25-1.424-.747-1.928a2.464 2.464 0 0 0-1.824-.754c-.72 0-1.327.251-1.825.754-.496.504-.745 1.147-.745 1.928 0 .782.249 1.425.745 1.928Zm4.288.563c-.66.679-1.481 1.018-2.463 1.018s-1.803-.34-2.462-1.018c-.66-.679-.99-1.509-.99-2.49 0-.982.33-1.813.99-2.491.659-.68 1.48-1.018 2.462-1.018.976 0 1.795.34 2.458 1.022.663.682.994 1.51.994 2.486 0 .982-.33 1.812-.99 2.49Z" fill="#282739"/><path d="m55.727 13.234-.08.078c.516.524 1.159.79 1.905.788a2.576 2.576 0 0 0 1.903-.788c.52-.524.78-1.201.78-2.006 0-.805-.26-1.483-.78-2.007a2.576 2.576 0 0 0-1.903-.788 2.579 2.579 0 0 0-1.905.788c-.517.524-.779 1.202-.778 2.007 0 .805.26 1.482.778 2.006l.08-.078.08-.08c-.475-.482-.713-1.09-.714-1.848.001-.758.239-1.366.714-1.85.479-.483 1.051-.72 1.745-.721.693.001 1.266.238 1.744.721l.002.002-.002-.002c.476.484.713 1.091.715 1.85-.002.758-.239 1.366-.715 1.849-.478.483-1.051.72-1.744.721-.694-.001-1.266-.238-1.746-.721l-.08.079Zm4.287.562-.08-.078c-.641.658-1.427.983-2.382.984-.957-.001-1.742-.326-2.382-.984-.64-.66-.957-1.456-.958-2.412.001-.957.317-1.753.958-2.413.64-.657 1.425-.983 2.382-.984.95.001 1.733.328 2.378.989.643.663.96 1.457.962 2.408-.002.956-.319 1.752-.958 2.412l.08.078.08.078c.68-.697 1.023-1.562 1.022-2.568 0-1.001-.344-1.864-1.026-2.564-.682-.703-1.536-1.058-2.538-1.057-1.008-.001-1.865.353-2.543 1.053-.68.697-1.022 1.561-1.02 2.568-.002 1.006.34 1.87 1.02 2.568.678.7 1.535 1.053 2.543 1.052 1.007 0 1.864-.352 2.543-1.052l-.08-.078ZM65.349 14.813c-.988 0-1.817-.334-2.486-1.004-.67-.668-1.004-1.503-1.004-2.504 0-1 .334-1.835 1.004-2.504.669-.67 1.498-1.004 2.486-1.004 1.012 0 1.835.366 2.467 1.097l-.601.582c-.456-.57-1.08-.853-1.866-.853-.733 0-1.35.247-1.853.74-.504.495-.756 1.142-.756 1.942s.252 1.448.756 1.942c.502.494 1.12.74 1.853.74.806 0 1.494-.324 2.064-.974l.6.6c-.307.369-.691.661-1.155.876a3.522 3.522 0 0 1-1.51.324Z" fill="#282739"/><path d="M65.347 14.814v-.112c-.963-.001-1.756-.323-2.406-.971-.65-.65-.97-1.45-.971-2.425 0-.976.321-1.776.97-2.425.65-.65 1.444-.97 2.407-.972.986.002 1.77.35 2.383 1.059l.084-.073-.077-.08-.602.581.078.08.088-.07c-.475-.595-1.14-.897-1.954-.895-.757 0-1.41.26-1.931.773-.527.516-.79 1.199-.789 2.022-.001.823.262 1.507.789 2.021.522.514 1.174.774 1.931.773.838.002 1.563-.342 2.148-1.013l-.084-.074-.079.08.6.6.08-.08-.087-.071a3.154 3.154 0 0 1-1.115.846 3.414 3.414 0 0 1-1.463.314v.224c.558 0 1.08-.111 1.557-.335a3.372 3.372 0 0 0 1.193-.906l.066-.078-.672-.673-.085-.085-.079.09c-.554.63-1.203.936-1.98.937-.707-.001-1.29-.234-1.774-.709-.481-.472-.721-1.084-.722-1.861.001-.778.24-1.389.722-1.862.484-.474 1.067-.708 1.774-.71.76.003 1.342.27 1.779.812l.077.097.69-.668.075-.074-.069-.08c-.65-.755-1.513-1.137-2.552-1.136-1.013 0-1.877.348-2.565 1.037-.69.688-1.037 1.559-1.036 2.584-.001 1.025.345 1.895 1.036 2.583.688.69 1.552 1.038 2.565 1.037v-.112ZM71.505 14.664h-.864V8.772h-1.875v-.825h4.615v.825h-1.876v5.892Z" fill="#282739"/><path d="M71.504 14.664v-.112h-.752V8.661h-1.876v-.602h4.392v.602h-1.876v6.003h.112v-.112.112h.112v-5.78h1.876V7.837h-4.84V8.885h1.876v5.89h1.088v-.111h-.112ZM75.256 12.036h2.232L76.39 9.007h-.037l-1.097 3.03Zm-1.904 2.628 2.533-6.717h.974l2.533 6.717h-.956l-.648-1.82h-2.823l-.657 1.82h-.956Z" fill="#282739"/><path d="M75.254 12.037v.112h2.391l-1.179-3.253h-.194l-1.178 3.253h.16v-.112l.105.038 1.097-3.03-.105-.038v.112h.037v-.112l-.106.039 1.044 2.879h-2.072v.112l.105.038-.105-.038Zm-1.905 2.627.105.04 2.506-6.645h.82l2.448 6.493h-.716l-.647-1.82h-2.98l-.658 1.82h-.878v.112l.105.04-.105-.04v.112h1.036l.657-1.82h2.665l.647 1.82h1.198l-2.618-6.94h-1.129l-2.618 6.94h.162v-.112ZM80.367 14.664V7.947h4.86v6.717h-.864V8.772H81.23v5.892h-.863Z" fill="#282739"/><path d="M80.366 14.664h.112V8.059h4.635v6.493h-.64V8.661h-3.356v5.891h-.751v.112h.112-.112v.112h.975V8.885h2.909v5.89h1.087v-6.94h-5.083v6.94h.112v-.111ZM86.766 14.664V7.947h.862v2.88h3.359v-2.88h.863v6.717h-.863v-3.03h-3.358v3.03h-.863Z" fill="#282739"/><path d="M86.764 14.664h.112V8.059h.64l-.001 2.88h3.582v-2.88h.64v6.493h-.64v-3.03h-3.582v3.03h-.75v.112h.111-.112v.112h.975v-3.03h3.134v3.03h1.087v-6.94h-1.087v2.879h-3.134v-2.88h-1.087v6.94h.112v-.111ZM94.591 13.233a2.466 2.466 0 0 0 1.825.755c.72 0 1.328-.252 1.825-.755.497-.503.746-1.146.746-1.928 0-.781-.25-1.424-.746-1.928a2.465 2.465 0 0 0-1.825-.754c-.72 0-1.327.251-1.825.754-.496.504-.745 1.147-.745 1.928 0 .782.25 1.425.745 1.928Zm4.288.563c-.66.679-1.481 1.018-2.463 1.018-.981 0-1.803-.34-2.462-1.018-.66-.679-.99-1.509-.99-2.49 0-.982.33-1.813.99-2.491.66-.68 1.48-1.018 2.462-1.018.976 0 1.795.34 2.459 1.022.662.682.993 1.51.993 2.486 0 .982-.33 1.812-.99 2.49Z" fill="#282739"/><path d="m94.59 13.234-.08.078c.516.524 1.16.79 1.904.788a2.577 2.577 0 0 0 1.905-.788c.519-.524.78-1.201.779-2.006 0-.805-.26-1.483-.78-2.007a2.578 2.578 0 0 0-1.904-.788 2.579 2.579 0 0 0-1.904.788c-.517.524-.778 1.202-.777 2.007-.001.805.26 1.482.777 2.006l.08-.078.08-.08c-.475-.482-.713-1.09-.713-1.848s.238-1.366.713-1.85c.479-.483 1.051-.72 1.744-.721.694.001 1.268.238 1.745.721l.004.004-.004-.004c.476.484.714 1.091.715 1.85-.001.758-.239 1.366-.715 1.849-.477.483-1.051.72-1.745.721-.693-.001-1.265-.238-1.744-.721l-.08.079Zm4.287.562-.08-.078c-.641.658-1.426.983-2.383.984-.956-.001-1.74-.326-2.38-.984l-.004-.003.003.003c-.64-.66-.957-1.456-.958-2.412.001-.957.317-1.753.958-2.413.64-.657 1.425-.983 2.381-.984.95.001 1.734.328 2.38.989.642.663.96 1.457.961 2.408-.001.956-.318 1.752-.958 2.412l.08.078.081.078c.679-.697 1.022-1.562 1.021-2.568 0-1.001-.344-1.864-1.025-2.564-.682-.703-1.537-1.058-2.54-1.057-1.007-.001-1.864.353-2.541 1.053-.68.697-1.022 1.561-1.021 2.568-.001 1.006.34 1.87 1.02 2.568.678.7 1.535 1.053 2.542 1.052 1.008 0 1.865-.352 2.544-1.052l-.08-.078ZM103.398 14.664V7.947h.862v2.88h3.359v-2.88h.864v6.717h-.864v-3.03h-3.359v3.03h-.862Z" fill="#282739"/><path d="M103.397 14.664h.112V8.059h.638v2.88h3.582v-2.88h.64v6.493h-.64v-3.03h-3.582v3.03h-.75v.112h.112-.112v.112h.974v-3.03h3.134v3.03h1.088v-6.94h-1.088v2.879h-3.134v-2.88h-1.086v6.94h.112v-.111ZM111.361 12.036h2.232l-1.097-3.029h-.037l-1.098 3.03Zm-1.904 2.628 2.533-6.717h.975l2.533 6.717h-.957l-.647-1.82h-2.824l-.656 1.82h-.957Z" fill="#282739"/><path d="M111.359 12.037v.112h2.393l-1.179-3.253h-.194l-1.179 3.253h.159v-.112l.106.038 1.098-3.03-.105-.038v.112h.036v-.112l-.105.039 1.044 2.879h-2.074v.112l.106.038-.106-.038Zm-1.904 2.627.106.04 2.505-6.645h.82l2.448 6.493h-.715l-.648-1.82h-2.981l-.657 1.82h-.878v.112l.106.04-.106-.04v.112h1.036l.657-1.82h2.665l.647 1.82h1.198l-2.617-6.94h-1.13l-2.618 6.94h.162v-.112Z" fill="#282739"/></g><defs><linearGradient id="awb" x1="24.626" y1="9.861" x2="5.84" y2="28.647" gradientUnits="userSpaceOnUse"><stop stop-color="#00A0FF"/><stop offset=".007" stop-color="#00A1FF"/><stop offset=".26" stop-color="#00BEFF"/><stop offset=".512" stop-color="#00D2FF"/><stop offset=".76" stop-color="#00DFFF"/><stop offset="1" stop-color="#00E3FF"/></linearGradient><linearGradient id="awc" x1="38.097" y1="22.501" x2="11.011" y2="22.501" gradientUnits="userSpaceOnUse"><stop stop-color="#FFE000"/><stop offset=".409" stop-color="#FFBD00"/><stop offset=".775" stop-color="orange"/><stop offset="1" stop-color="#FF9C00"/></linearGradient><linearGradient id="awd" x1="28.013" y1="25.07" x2="2.537" y2="50.545" gradientUnits="userSpaceOnUse"><stop stop-color="#FF3A44"/><stop offset="1" stop-color="#C31162"/></linearGradient><linearGradient id="awe" x1="8.394" y1=".309" x2="19.77" y2="11.685" gradientUnits="userSpaceOnUse"><stop stop-color="#32A071"/><stop offset=".069" stop-color="#2DA771"/><stop offset=".476" stop-color="#15CF74"/><stop offset=".801" stop-color="#06E775"/><stop offset="1" stop-color="#00F076"/></linearGradient><linearGradient id="awf" x1="38.096" y1="22.502" x2="11.009" y2="22.502" gradientUnits="userSpaceOnUse"><stop stop-color="#CCB300"/><stop offset=".409" stop-color="#CC9700"/><stop offset=".775" stop-color="#CC8400"/><stop offset="1" stop-color="#CC7D00"/></linearGradient><linearGradient id="awg" x1="28.016" y1="25.07" x2="2.54" y2="50.545" gradientUnits="userSpaceOnUse"><stop stop-color="#CC2E36"/><stop offset="1" stop-color="#9C0E4E"/></linearGradient><linearGradient id="awh" x1="24.626" y1="9.861" x2="5.84" y2="28.648" gradientUnits="userSpaceOnUse"><stop stop-color="#008DE0"/><stop offset=".007" stop-color="#008DE0"/><stop offset=".26" stop-color="#00A7E0"/><stop offset=".512" stop-color="#00B8E0"/><stop offset=".76" stop-color="#00C4E0"/><stop offset="1" stop-color="#00C7E0"/></linearGradient><linearGradient id="awi" x1="28.017" y1="25.07" x2="2.542" y2="50.547" gradientUnits="userSpaceOnUse"><stop stop-color="#E0333C"/><stop offset="1" stop-color="#AB0F56"/></linearGradient><linearGradient id="awj" x1="38.099" y1="22.501" x2="11.012" y2="22.501" gradientUnits="userSpaceOnUse"><stop stop-color="#E0C500"/><stop offset=".409" stop-color="#E0A600"/><stop offset=".775" stop-color="#E09100"/><stop offset="1" stop-color="#E08900"/></linearGradient><linearGradient id="awk" x1="38.099" y1="22.501" x2="11.013" y2="22.501" gradientUnits="userSpaceOnUse"><stop stop-color="#FFE840"/><stop offset=".409" stop-color="#FFCE40"/><stop offset=".775" stop-color="#FFBC40"/><stop offset="1" stop-color="#FFB540"/></linearGradient><linearGradient id="awl" x1="24.626" y1="9.861" x2="5.84" y2="28.647" gradientUnits="userSpaceOnUse"><stop stop-color="#40B8FF"/><stop offset=".007" stop-color="#40B9FF"/><stop offset=".26" stop-color="#40CEFF"/><stop offset=".512" stop-color="#40DDFF"/><stop offset=".76" stop-color="#40E7FF"/><stop offset="1" stop-color="#40EAFF"/></linearGradient><linearGradient id="awm" x1="8.393" y1=".309" x2="19.769" y2="11.685" gradientUnits="userSpaceOnUse"><stop stop-color="#65B895"/><stop offset=".069" stop-color="#62BD95"/><stop offset=".476" stop-color="#50DB97"/><stop offset=".801" stop-color="#44ED98"/><stop offset="1" stop-color="#40F498"/></linearGradient><clipPath id="awa"><path fill="#fff" d="M0 0h151.455v45H0z"/></clipPath></defs></svg><svg fill="none" viewBox="0 0 18 18" id="power-icon" xmlns="http://www.w3.org/2000/svg"><path d="M14.224.26a.484.484 0 0 0-.428-.26H6.73a.484.484 0 0 0-.463.346L3.743 8.804a.482.482 0 0 0 .463.62h3.962l-1.596 7.997a.484.484 0 0 0 .894.335l6.224-10.93a.485.485 0 0 0-.42-.725h-2.803l3.725-5.34a.482.482 0 0 0 .032-.5Z" fill="#5D6C7B"/></svg><svg fill="none" viewBox="0 0 35 24" id="qiwi-pay" xmlns="http://www.w3.org/2000/svg"><rect x=".915" y=".56" width="33.59" height="22.881" rx="2.678" fill="#fff" stroke="#EAEBED" stroke-width=".487"/><path fill-rule="evenodd" clip-rule="evenodd" d="M10.41 11.579c0 3.77 3.075 6.844 6.881 6.844.467 0 .935-.04 1.471-.088.6-.052 1.284-.112 2.153-.131 1.317 0 2.745.475 4.319 1.866.146.147.366-.036.22-.22-1.575-1.94-3.002-2.305-4.43-2.635-1.756-.402-2.671-1.354-3.294-2.452-.11-.22-.183-.183-.183.11-.036.44 0 .842.074 1.244h-.22c-2.489 0-4.539-2.05-4.539-4.538 0-2.49 2.05-4.539 4.539-4.539s4.538 2.05 4.538 4.539c0 .146 0 .33-.036.512-.366-.073-.988-.073-1.464-.036-.183 0-.183.073-.037.11 1.464.292 2.49 1.207 2.745 2.89 0 .074.037.074.074.037a7.103 7.103 0 0 0 .951-3.513 6.873 6.873 0 0 0-6.88-6.881c-3.807 0-6.882 3.11-6.882 6.88Zm11.859 2.818c.256.11.366.476.366.659.037.293-.037.44-.147.44-.11 0-.256-.11-.402-.367-.146-.256-.22-.512-.146-.659.11-.073.22-.11.329-.073Zm-1.5 1.135c.146 0 .329.073.512.22.293.256.402.548.256.768-.073.11-.256.183-.403.183a.696.696 0 0 1-.476-.183c-.292-.256-.366-.622-.183-.842.037-.073.147-.146.293-.146Z" fill="#F28A1A"/></svg><svg fill="none" viewBox="0 0 26 27" id="search-icon" xmlns="http://www.w3.org/2000/svg"><g filter="url(#aza)"><path d="M12.116 1.61c-4.133 0-7.499 3.365-7.499 7.498 0 4.132 3.366 7.505 7.499 7.505a7.453 7.453 0 0 0 4.67-1.646l3.124 3.122a.835.835 0 0 0 1.182-1.18l-3.124-3.123a7.467 7.467 0 0 0 1.648-4.678c0-4.133-3.368-7.499-7.5-7.499Zm0 1.666c3.231 0 5.831 2.6 5.831 5.832 0 3.231-2.6 5.838-5.831 5.838a5.824 5.824 0 0 1-5.832-5.838c0-3.232 2.6-5.832 5.832-5.832Z" fill="#5D6C7B"/></g><defs><filter id="aza" x="-1" y="0" width="28" height="28" filterUnits="userSpaceOnUse" color-interpolation-filters="sRGB"><feFlood flood-opacity="0" result="BackgroundImageFix"/><feColorMatrix in="SourceAlpha" values="0 0 0 0 0 0 0 0 0 0 0 0 0 0 0 0 0 0 127 0" result="hardAlpha"/><feOffset dy="4"/><feGaussianBlur stdDeviation="2"/><feComposite in2="hardAlpha" operator="out"/><feColorMatrix values="0 0 0 0 0 0 0 0 0 0 0 0 0 0 0 0 0 0 0.25 0"/><feBlend in2="BackgroundImageFix" result="effect1_dropShadow_395_22224"/><feBlend in="SourceGraphic" in2="effect1_dropShadow_395_22224" result="shape"/></filter></defs></svg><svg fill="none" viewBox="0 0 20 20" id="share-icon" xmlns="http://www.w3.org/2000/svg"><g clip-path="url(#baa)"><path d="M15.423 13.453c-.959 0-1.822.414-2.421 1.072l-5.39-3.338a3.255 3.255 0 0 0 0-2.374l5.39-3.338a3.266 3.266 0 0 0 2.42 1.072 3.277 3.277 0 0 0 3.274-3.274A3.277 3.277 0 0 0 15.423 0a3.277 3.277 0 0 0-3.05 4.46L6.983 7.8a3.266 3.266 0 0 0-2.42-1.073A3.277 3.277 0 0 0 1.289 10a3.277 3.277 0 0 0 3.274 3.274c.958 0 1.821-.414 2.42-1.073l5.39 3.338a3.277 3.277 0 0 0 3.05 4.46 3.277 3.277 0 0 0 3.273-3.273 3.277 3.277 0 0 0-3.273-3.273Zm-2.08-10.18c0-1.146.933-2.08 2.08-2.08s2.08.934 2.08 2.08c0 1.147-.933 2.08-2.08 2.08a2.082 2.082 0 0 1-2.08-2.08Zm-8.78 8.807A2.082 2.082 0 0 1 2.483 10c0-1.147.933-2.08 2.08-2.08s2.08.933 2.08 2.08-.933 2.08-2.08 2.08Zm8.78 4.646c0-1.146.933-2.08 2.08-2.08s2.08.933 2.08 2.08-.933 2.08-2.08 2.08a2.082 2.082 0 0 1-2.08-2.08Z" fill="#282739"/></g><defs><clipPath id="baa"><path fill="#fff" d="M0 0h20v20H0z"/></clipPath></defs></svg><svg fill="none" viewBox="0 0 20 20" id="shopping-cart-icon" xmlns="http://www.w3.org/2000/svg"><g clip-path="url(#bba)" fill="#5D6C7B"><path d="M19.703 7.23a1.382 1.382 0 0 0-1.087-.522h-3.852l-2.088-4.783a.586.586 0 1 0-1.074.47l1.883 4.313h-6.97l1.883-4.314a.586.586 0 0 0-1.074-.469L5.236 6.708H1.384c-.427 0-.823.19-1.087.521a1.35 1.35 0 0 0-.263 1.148l2.057 8.984a1.373 1.373 0 0 0 1.35 1.066h13.118c.651 0 1.206-.439 1.35-1.066l2.056-8.984a1.35 1.35 0 0 0-.262-1.148ZM16.56 17.254H3.441a.21.21 0 0 1-.207-.155L1.177 8.115a.179.179 0 0 1 .036-.155.213.213 0 0 1 .171-.08h3.34l-.153.351a.586.586 0 0 0 1.073.47l.359-.821h7.994l.359.82a.586.586 0 1 0 1.074-.469l-.154-.351h3.34c.093 0 .147.05.17.08a.18.18 0 0 1 .037.155L16.766 17.1a.21.21 0 0 1-.207.155Z"/><path d="M6.484 10.419a.586.586 0 0 0-.586.586v4.297a.586.586 0 0 0 1.172 0v-4.297a.586.586 0 0 0-.586-.586ZM10 10.419a.586.586 0 0 0-.586.586v4.297a.586.586 0 0 0 1.172 0v-4.297a.586.586 0 0 0-.586-.586ZM13.516 10.419a.586.586 0 0 0-.586.586v4.297a.586.586 0 1 0 1.172 0v-4.297a.586.586 0 0 0-.586-.586Z"/></g><defs><clipPath id="bba"><path fill="#fff" d="M0 0h20v20H0z"/></clipPath></defs></svg><svg fill="none" viewBox="0 0 18 18" id="speedometer-icon" xmlns="http://www.w3.org/2000/svg"><path d="M8.472 4.564V1.236A8.938 8.938 0 0 0 3.012 3.5l2.353 2.353a5.64 5.64 0 0 1 3.107-1.288ZM4.619 6.598 2.266 4.244A8.937 8.937 0 0 0 0 9.705h3.328a5.64 5.64 0 0 1 1.29-3.107ZM14.67 9.705h3.328a8.938 8.938 0 0 0-2.266-5.46L13.38 6.597a5.641 5.641 0 0 1 1.29 3.107ZM14.67 10.76a5.661 5.661 0 0 1-1.644 3.502.528.528 0 0 0 0 .747l1.6 1.6a.527.527 0 0 0 .747 0 8.948 8.948 0 0 0 2.626-5.849h-3.33ZM3.272 13.786c.147-.232.37-.58.638-.993a5.617 5.617 0 0 1-.58-2.033H0a8.949 8.949 0 0 0 2.626 5.85.527.527 0 0 0 .747 0l.548-.548a1.584 1.584 0 0 1-.433-.308 1.573 1.573 0 0 1-.216-1.968ZM9.527 1.236v3.328a5.64 5.64 0 0 1 3.108 1.288l2.353-2.353a8.938 8.938 0 0 0-5.46-2.263ZM7.827 9.07c-.816.816-3.377 4.827-3.666 5.282a.527.527 0 0 0 .728.728c.454-.29 4.465-2.85 5.282-3.667a1.659 1.659 0 0 0 0-2.343 1.659 1.659 0 0 0-2.344 0Z" fill="#5D6C7B"/></svg><svg fill="none" viewBox="0 0 20 20" id="telegram-fill-icon" xmlns="http://www.w3.org/2000/svg"><g clip-path="url(#bda)"><path d="m7.848 12.651-.331 4.653c.473 0 .678-.203.924-.447l2.22-2.121 4.598 3.367c.843.47 1.437.223 1.665-.775l3.018-14.144c.268-1.247-.45-1.735-1.272-1.429L.928 8.548c-1.21.47-1.192 1.145-.205 1.45l4.535 1.411 10.536-6.592c.496-.328.947-.147.576.182L7.848 12.65Z" fill="#039BE5"/></g><defs><clipPath id="bda"><path fill="#fff" d="M0 0h20v20H0z"/></clipPath></defs></svg><svg fill="none" viewBox="0 0 12 13" id="telegram-icon" xmlns="http://www.w3.org/2000/svg"><g clip-path="url(#bea)"><path d="m4.709 8.09-.199 2.793c.284 0 .407-.122.555-.269l1.331-1.272 2.76 2.02c.505.282.862.134.998-.465l1.811-8.486c.161-.749-.27-1.041-.763-.858L.557 5.63c-.726.282-.715.687-.123.87l2.721.847L9.477 3.39c.297-.197.568-.088.345.11L4.71 8.09Z" fill="#5D6C7B"/></g><defs><clipPath id="bea"><path fill="#fff" transform="translate(0 .5)" d="M0 0h12v12H0z"/></clipPath></defs></svg><svg fill="none" viewBox="0 0 18 18" id="timer-icon" xmlns="http://www.w3.org/2000/svg"><g clip-path="url(#bfa)" fill="#5D6C7B"><path d="M14.453 5.358 15.53 4.28l-1.06-1.06-1.153 1.152A7.452 7.452 0 0 0 9.75 3.038V1.5h1.5V0h-4.5v1.5h1.5v1.538a7.453 7.453 0 0 0-3.567 1.334L3.53 3.22 2.47 4.28l1.077 1.078a7.5 7.5 0 1 0 10.905 0ZM9 16.5a6 6 0 1 1 6-6 6.007 6.007 0 0 1-6 6Z"/><path d="M9 6v4.5H4.5A4.5 4.5 0 1 0 9 6Z"/></g><defs><clipPath id="bfa"><path fill="#fff" d="M0 0h18v18H0z"/></clipPath></defs></svg><svg fill="none" viewBox="0 0 15 15" id="user-icon" xmlns="http://www.w3.org/2000/svg"><path d="M3 13v.5h1V13H3Zm8 0v.5h1V13h-1Zm-7 0v-.5H3v.5h1Zm2.5-3h2V9h-2v1Zm4.5 2.5v.5h1v-.5h-1ZM8.5 10a2.5 2.5 0 0 1 2.5 2.5h1A3.5 3.5 0 0 0 8.5 9v1ZM4 12.5A2.5 2.5 0 0 1 6.5 10V9A3.5 3.5 0 0 0 3 12.5h1ZM7.5 3A2.5 2.5 0 0 0 5 5.5h1A1.5 1.5 0 0 1 7.5 4V3ZM10 5.5A2.5 2.5 0 0 0 7.5 3v1A1.5 1.5 0 0 1 9 5.5h1ZM7.5 8A2.5 2.5 0 0 0 10 5.5H9A1.5 1.5 0 0 1 7.5 7v1Zm0-1A1.5 1.5 0 0 1 6 5.5H5A2.5 2.5 0 0 0 7.5 8V7Zm0 7A6.5 6.5 0 0 1 1 7.5H0A7.5 7.5 0 0 0 7.5 15v-1ZM14 7.5A6.5 6.5 0 0 1 7.5 14v1A7.5 7.5 0 0 0 15 7.5h-1ZM7.5 1A6.5 6.5 0 0 1 14 7.5h1A7.5 7.5 0 0 0 7.5 0v1Zm0-1A7.5 7.5 0 0 0 0 7.5h1A6.5 6.5 0 0 1 7.5 1V0Z" fill="#5D6C7B"/></svg><svg fill="none" viewBox="0 0 35 24" id="viza-pay" xmlns="http://www.w3.org/2000/svg"><rect x="1.134" y=".56" width="33.59" height="22.881" rx="2.678" fill="#fff" stroke="#EAEBED" stroke-width=".487"/><path fill-rule="evenodd" clip-rule="evenodd" d="M11.237 16.146H9.173L7.625 10.24c-.074-.272-.23-.512-.46-.625a6.72 6.72 0 0 0-1.892-.625v-.228H8.6c.459 0 .803.342.86.739l.804 4.26 2.063-4.999h2.007l-3.096 7.384Zm4.244 0h-1.95l1.606-7.384h1.95l-1.606 7.384Zm4.128-5.338c.057-.398.401-.625.803-.625a3.633 3.633 0 0 1 1.892.34l.344-1.59a4.936 4.936 0 0 0-1.777-.34c-1.892 0-3.27 1.022-3.27 2.441 0 1.08.976 1.647 1.664 1.989.745.34 1.032.568.975.908 0 .511-.574.739-1.147.739-.688 0-1.377-.17-2.007-.455l-.344 1.59a5.625 5.625 0 0 0 2.122.398c2.121.056 3.44-.965 3.44-2.5 0-1.93-2.695-2.044-2.695-2.895Zm9.519 5.338-1.549-7.384h-1.662a.862.862 0 0 0-.804.568l-2.866 6.816h2.007l.4-1.079h2.466l.23 1.079h1.778Zm-2.925-5.395.573 2.783h-1.605l1.032-2.783Z" fill="#172B85"/></svg><svg fill="none" viewBox="0 0 20 20" id="vk-icon" xmlns="http://www.w3.org/2000/svg"><g clip-path="url(#bia)"><path d="M16.596 10.857c-.323-.408-.231-.59 0-.955.004-.004 2.673-3.693 2.948-4.943l.002-.001c.137-.456 0-.791-.661-.791h-2.187c-.556 0-.813.287-.95.61 0 0-1.114 2.664-2.689 4.392-.508.499-.743.659-1.02.659-.137 0-.35-.16-.35-.616V4.958c0-.547-.156-.791-.617-.791H7.634c-.349 0-.557.255-.557.492 0 .519.788.638.87 2.096V9.92c0 .694-.126.821-.405.821-.744 0-2.548-2.676-3.617-5.738-.216-.594-.427-.834-.987-.834H.75c-.624 0-.75.287-.75.609 0 .568.743 3.394 3.457 7.128 1.808 2.548 4.355 3.929 6.671 3.929 1.393 0 1.563-.307 1.563-.835 0-2.434-.126-2.665.571-2.665.324 0 .88.16 2.18 1.39 1.486 1.457 1.73 2.11 2.562 2.11h2.187c.623 0 .939-.307.757-.912-.416-1.273-3.226-3.89-3.352-4.065Z" fill="#4B729F"/></g><defs><clipPath id="bia"><path fill="#fff" d="M0 0h20v20H0z"/></clipPath></defs></svg><svg fill="none" viewBox="0 0 13 13" id="whatsapp-icon" xmlns="http://www.w3.org/2000/svg"><g clip-path="url(#bja)"><path d="M6.497.504A5.996 5.996 0 0 0 1.45 9.736l-.933 2.421a.25.25 0 0 0 .317.325l2.499-.892A5.996 5.996 0 1 0 6.497.504Z" fill="#5D6C7B"/><path d="M9.357 7.525s-.612-.3-.995-.5c-.434-.224-.944.195-1.184.433a3.007 3.007 0 0 1-1.003-.637 3.004 3.004 0 0 1-.636-1.003c.238-.24.655-.75.433-1.183-.198-.384-.5-.996-.5-.996a.25.25 0 0 0-.223-.138h-.5a1.506 1.506 0 0 0-1.249 1.5c0 .784.939 2.291 1.572 2.925.633.633 2.14 1.572 2.925 1.572a1.506 1.506 0 0 0 1.5-1.25V7.75a.25.25 0 0 0-.14-.224Z" fill="#F7F7F7"/></g><defs><clipPath id="bja"><path fill="#fff" transform="translate(.5 .5)" d="M0 0h12v12H0z"/></clipPath></defs></svg><svg fill="none" viewBox="0 0 35 24" id="wm-pay" xmlns="http://www.w3.org/2000/svg"><rect x=".97" y=".56" width="33.59" height="22.881" rx="2.678" fill="#fff" stroke="#EAEBED" stroke-width=".487"/><path fill-rule="evenodd" clip-rule="evenodd" d="M13.547 16.049c.153-.08.412-.183.687-.183.63 0 .97.425.97 1.218 0 .925-.457 1.375-1.194 1.375-.27 0-.687-.084-.992-.242v-3.455l.53-.124v1.41Zm-.005 1.985c.163.069.34.079.468.079.376 0 .66-.228.66-1.03 0-.628-.233-.831-.574-.831-.203 0-.35.054-.554.163v1.619ZM8.126 15.93h.036l.691 2.47h.55l.823-3.51h-.595l-.518 2.619h-.036L8.37 14.89h-.452l-.661 2.619H7.22l-.57-2.619h-.569l.824 3.51h.549l.671-2.47Zm4.354 2.302v-.377c-.28.164-.534.258-.809.258-.524 0-.773-.263-.773-.857h1.658v-.183c0-.806-.392-1.207-1.027-1.207-.763 0-1.155.544-1.155 1.296 0 .783.351 1.297 1.205 1.297.367 0 .672-.099.9-.227Zm-.407-1.307h-1.164c.055-.495.294-.728.605-.728.274 0 .534.208.559.728Zm5.471.732h-.026L16.38 14.89h-.615v3.51h.458v-2.485h.046l1.037 2.485h.325l1.038-2.544h.046V18.4h.549v-3.51h-.63l-1.089 2.767Zm2.278-.495c0-.866.488-1.296 1.16-1.296.67 0 1.159.43 1.159 1.296 0 .847-.463 1.297-1.16 1.297-.696 0-1.159-.45-1.159-1.297Zm1.785 0c0-.668-.28-.95-.626-.95-.335 0-.625.282-.625.95 0 .679.264.95.625.95s.626-.271.626-.95Zm2.313-1.296c-.584 0-1.067.232-1.296.366V18.4h.529v-1.96c.157-.09.417-.178.62-.178.26 0 .458.069.458.46V18.4h.528v-1.792c0-.51-.228-.742-.839-.742Zm3.417 1.99v.375a1.828 1.828 0 0 1-.9.228c-.854 0-1.205-.514-1.205-1.297 0-.752.392-1.296 1.155-1.296.635 0 1.027.4 1.027 1.207v.183h-1.658c0 .594.25.857.773.857.275 0 .529-.094.808-.258Zm-1.57-.931h1.164c-.026-.52-.285-.728-.56-.728-.31 0-.549.233-.605.728Zm4.17-.975h-.545l-.58 1.821h-.03l-.651-1.821h-.56l.977 2.475c-.122.366-.336.633-.681.633v.406c.584 0 .894-.356 1.149-1.04l.92-2.474ZM17.668 4.516a4.524 4.524 0 0 1 2.23.582l-.41.357-.616-.62-1.04.903-.619-.656-1.938 1.7 1.243 1.333-.489.418 1.224 1.335-.485.417 1.748 1.894 1.039-.93.897.997a4.762 4.762 0 0 1-.587.38 4.516 4.516 0 0 1-2.197.566c-2.455 0-4.457-1.95-4.457-4.338 0-2.39 2.002-4.338 4.457-4.338Zm-.813 4.063 1.06-.928.955 1.031-1.06.929-.954-1.032Zm1.814.854-1.06.929.954 1.032 1.06-.93-.954-1.03Zm-2.572-2.615 1.06-.929.954 1.032-1.06.928-.954-1.031Zm2.74-1.197-.795.697.715.774.795-.697-.715-.774Zm.617 3.888.795-.697.716.774-.795.696-.716-.773Zm1.494.866-.795.696.716.774.795-.697-.716-.773Zm-.474-2.885.53-.465.476.516-.53.464-.476-.515Zm-.148-1.997-.53.464.477.516.53-.464-.477-.516Zm.825 3.53.53-.465.477.516-.53.464-.477-.516Zm-1.582-1.846-.794.697.715.773.795-.696-.716-.774Z" fill="#0068A3"/></svg><svg fill="none" viewBox="0 0 20 20" id="youtube-icon" xmlns="http://www.w3.org/2000/svg"><g clip-path="url(#bla)"><path d="M.436 14.895c.408 1.448 1.658 1.713 1.741 1.764 2.056.56 13.58.562 15.666 0 1.429-.413 1.692-1.68 1.74-1.764.545-2.895.58-6.67-.024-9.954l.025.163c-.409-1.448-1.658-1.713-1.741-1.764-2.028-.55-13.582-.572-15.666 0C.747 3.754.485 5.02.437 5.104c-.583 3.043-.613 6.533 0 9.79Zm7.572-1.853V6.965l5.222 3.043-5.222 3.034Z" fill="#E53935"/></g><defs><clipPath id="bla"><path fill="#fff" d="M0 0h20v20H0z"/></clipPath></defs></svg></svg>